# MagicaVoxel @ Ephtracy

# group
o 

# material
mtllib diplome.mtl
usemtl palette

# normals
vn -1 0 0
vn 1 0 0
vn 0 0 1
vn 0 0 -1
vn 0 -1 0
vn 0 1 0

# texcoords
vt 0.00195313 0.5
vt 0.537109 0.5
vt 0.982422 0.5
vt 0.994141 0.5

# verts
v 4.4 2.7 -7.8
v 4.4 2.7 -7.9
v 4.4 4.6 -7.8
v 4.4 4.6 -7.9
v 4.5 2.8 -7.7
v 4.5 2.8 -7.8
v 4.5 2.8 -7.9
v 4.5 2.8 -8
v 4.5 4.5 -7.7
v 4.5 4.5 -7.8
v 4.5 4.5 -7.9
v 4.5 4.5 -8
v 4.6 4.5 -7.9
v 4.6 4.5 -8
v 4.6 4.6 -7.9
v 4.6 4.6 -8
v 4.7 4.6 -7.9
v 4.7 4.6 -8
v 4.7 4.7 -7.9
v 4.7 4.7 -8
v 4.9 4.7 -7.9
v 4.9 4.7 -8
v 4.9 4.8 -7.9
v 4.9 4.8 -8
v 5 4.8 -7.9
v 5 4.8 -8
v 5 4.9 -7.9
v 5 4.9 -8
v 5.2 4.9 -7.9
v 5.2 4.9 -8
v 5.2 5 -7.9
v 5.2 5 -8
v 5.3 5 -7.9
v 5.3 5 -8
v 5.3 5.1 -7.9
v 5.3 5.1 -8
v 5.4 5.1 -7.9
v 5.4 5.1 -8
v 5.4 5.2 -7.9
v 5.4 5.2 -8
v 5.6 5.2 -7.9
v 5.6 5.2 -8
v 5.6 5.3 -7.9
v 5.6 5.3 -8
v 5.7 5.3 -7.9
v 5.7 5.3 -8
v 5.7 5.4 -7.9
v 5.7 5.4 -8
v 5.8 5.3 -7.8
v 5.8 5.3 -7.9
v 5.8 5.4 -7.8
v 5.8 5.4 -7.9
v 5.9 5.2 -7.8
v 5.9 5.2 -7.9
v 5.9 5.3 -7.8
v 5.9 5.3 -7.9
v 5.9 5.4 -7.8
v 5.9 5.4 -7.9
v 5.9 5.4 -8
v 5.9 5.5 -7.8
v 5.9 5.5 -7.9
v 5.9 5.5 -8
v 6.3 5.2 -7.9
v 6.3 5.2 -8
v 6.3 5.3 -7.9
v 6.3 5.3 -8
v 6.4 5.1 -7.9
v 6.4 5.1 -8
v 6.4 5.2 -7.9
v 6.4 5.2 -8
v 6.6 5 -7.9
v 6.6 5 -8
v 6.6 5.1 -7.9
v 6.6 5.1 -8
v 6.7 4.9 -7.9
v 6.7 4.9 -8
v 6.7 5 -7.9
v 6.7 5 -8
v 6.8 4.8 -7.9
v 6.8 4.8 -8
v 6.8 4.9 -7.9
v 6.8 4.9 -8
v 7 4.7 -7.9
v 7 4.7 -8
v 7 4.8 -7.9
v 7 4.8 -8
v 7.1 4.6 -7.9
v 7.1 4.6 -8
v 7.1 4.7 -7.9
v 7.1 4.7 -8
v 7.3 4.5 -7.9
v 7.3 4.5 -8
v 7.3 4.6 -7.9
v 7.3 4.6 -8
v 7.4 2.9 -7.7
v 7.4 2.9 -7.8
v 7.4 4.4 -7.7
v 7.4 4.4 -7.8
v 4.6 2.9 -7.7
v 4.6 2.9 -7.8
v 4.6 4.4 -7.7
v 4.6 4.4 -7.8
v 4.7 4.5 -7.9
v 4.7 4.5 -8
v 4.7 4.6 -7.9
v 4.7 4.6 -8
v 4.9 4.6 -7.9
v 4.9 4.6 -8
v 4.9 4.7 -7.9
v 4.9 4.7 -8
v 5 4.7 -7.9
v 5 4.7 -8
v 5 4.8 -7.9
v 5 4.8 -8
v 5.2 4.8 -7.9
v 5.2 4.8 -8
v 5.2 4.9 -7.9
v 5.2 4.9 -8
v 5.3 4.9 -7.9
v 5.3 4.9 -8
v 5.3 5 -7.9
v 5.3 5 -8
v 5.4 5 -7.9
v 5.4 5 -8
v 5.4 5.1 -7.9
v 5.4 5.1 -8
v 5.6 5.1 -7.9
v 5.6 5.1 -8
v 5.6 5.2 -7.9
v 5.6 5.2 -8
v 5.7 5.2 -7.9
v 5.7 5.2 -8
v 5.7 5.3 -7.9
v 5.7 5.3 -8
v 6.1 5.2 -7.8
v 6.1 5.2 -7.9
v 6.1 5.3 -7.8
v 6.1 5.3 -7.9
v 6.1 5.4 -7.8
v 6.1 5.4 -7.9
v 6.1 5.4 -8
v 6.1 5.5 -7.8
v 6.1 5.5 -7.9
v 6.1 5.5 -8
v 6.2 5.3 -7.8
v 6.2 5.3 -7.9
v 6.2 5.4 -7.8
v 6.2 5.4 -7.9
v 6.3 5.3 -7.9
v 6.3 5.3 -8
v 6.3 5.4 -7.9
v 6.3 5.4 -8
v 6.4 5.2 -7.9
v 6.4 5.2 -8
v 6.4 5.3 -7.9
v 6.4 5.3 -8
v 6.6 5.1 -7.9
v 6.6 5.1 -8
v 6.6 5.2 -7.9
v 6.6 5.2 -8
v 6.7 5 -7.9
v 6.7 5 -8
v 6.7 5.1 -7.9
v 6.7 5.1 -8
v 6.8 4.9 -7.9
v 6.8 4.9 -8
v 6.8 5 -7.9
v 6.8 5 -8
v 7 4.8 -7.9
v 7 4.8 -8
v 7 4.9 -7.9
v 7 4.9 -8
v 7.1 4.7 -7.9
v 7.1 4.7 -8
v 7.1 4.8 -7.9
v 7.1 4.8 -8
v 7.3 4.6 -7.9
v 7.3 4.6 -8
v 7.3 4.7 -7.9
v 7.3 4.7 -8
v 7.4 4.5 -7.9
v 7.4 4.5 -8
v 7.4 4.6 -7.9
v 7.4 4.6 -8
v 7.5 2.8 -7.7
v 7.5 2.8 -7.8
v 7.5 2.8 -7.9
v 7.5 2.8 -8
v 7.5 4.5 -7.7
v 7.5 4.5 -7.8
v 7.5 4.5 -7.9
v 7.5 4.5 -8
v 7.6 2.7 -7.8
v 7.6 2.7 -7.9
v 7.6 4.6 -7.8
v 7.6 4.6 -7.9
v 4.5 2.8 -7.7
v 4.5 4.5 -7.7
v 4.6 2.9 -7.7
v 4.6 4.4 -7.7
v 7.4 2.9 -7.7
v 7.4 4.4 -7.7
v 7.5 2.8 -7.7
v 7.5 4.5 -7.7
v 4.4 2.7 -7.8
v 4.4 4.6 -7.8
v 4.5 2.8 -7.8
v 4.5 4.5 -7.8
v 4.6 2.9 -7.8
v 4.6 4.4 -7.8
v 4.7 3 -7.8
v 4.7 4.3 -7.8
v 4.8 3.1 -7.8
v 4.8 4.2 -7.8
v 5.8 5.3 -7.8
v 5.8 5.4 -7.8
v 5.9 5.2 -7.8
v 5.9 5.3 -7.8
v 5.9 5.4 -7.8
v 5.9 5.5 -7.8
v 6.1 5.2 -7.8
v 6.1 5.3 -7.8
v 6.1 5.4 -7.8
v 6.1 5.5 -7.8
v 6.2 5.3 -7.8
v 6.2 5.4 -7.8
v 7.2 3.1 -7.8
v 7.2 4.2 -7.8
v 7.3 3 -7.8
v 7.3 4.3 -7.8
v 7.4 2.9 -7.8
v 7.4 4.4 -7.8
v 7.5 2.8 -7.8
v 7.5 4.5 -7.8
v 7.6 2.7 -7.8
v 7.6 4.6 -7.8
v 4.7 4.6 -7.9
v 4.7 4.7 -7.9
v 4.9 4.6 -7.9
v 4.9 4.7 -7.9
v 4.9 4.8 -7.9
v 5 4.7 -7.9
v 5 4.8 -7.9
v 5 4.9 -7.9
v 5.2 4.8 -7.9
v 5.2 4.9 -7.9
v 5.2 5 -7.9
v 5.3 4.9 -7.9
v 5.3 5 -7.9
v 5.3 5.1 -7.9
v 5.4 5 -7.9
v 5.4 5.1 -7.9
v 5.4 5.2 -7.9
v 5.6 5.1 -7.9
v 5.6 5.2 -7.9
v 5.6 5.3 -7.9
v 5.7 5.2 -7.9
v 5.7 5.3 -7.9
v 5.7 5.4 -7.9
v 5.8 5.3 -7.9
v 5.8 5.4 -7.9
v 6.2 5.3 -7.9
v 6.2 5.4 -7.9
v 6.3 5.2 -7.9
v 6.3 5.3 -7.9
v 6.3 5.4 -7.9
v 6.4 5.1 -7.9
v 6.4 5.2 -7.9
v 6.4 5.3 -7.9
v 6.6 5 -7.9
v 6.6 5.1 -7.9
v 6.6 5.2 -7.9
v 6.7 4.9 -7.9
v 6.7 5 -7.9
v 6.7 5.1 -7.9
v 6.8 4.8 -7.9
v 6.8 4.9 -7.9
v 6.8 5 -7.9
v 7 4.7 -7.9
v 7 4.8 -7.9
v 7 4.9 -7.9
v 7.1 4.6 -7.9
v 7.1 4.7 -7.9
v 7.1 4.8 -7.9
v 7.3 4.6 -7.9
v 7.3 4.7 -7.9
v 4.4 2.7 -7.9
v 4.4 4.6 -7.9
v 4.5 2.8 -7.9
v 4.5 4.5 -7.9
v 4.6 4.5 -7.9
v 4.6 4.6 -7.9
v 4.7 4.5 -7.9
v 4.7 4.6 -7.9
v 4.9 4.6 -7.9
v 5.9 5.2 -7.9
v 5.9 5.3 -7.9
v 6.1 5.2 -7.9
v 6.1 5.3 -7.9
v 7.1 4.6 -7.9
v 7.3 4.5 -7.9
v 7.3 4.6 -7.9
v 7.4 4.5 -7.9
v 7.4 4.6 -7.9
v 7.5 2.8 -7.9
v 7.5 4.5 -7.9
v 7.6 2.7 -7.9
v 7.6 4.6 -7.9
v 4.5 2.8 -8
v 4.5 4.5 -8
v 4.6 4.5 -8
v 4.6 4.6 -8
v 4.7 4.5 -8
v 4.7 4.6 -8
v 4.7 4.7 -8
v 4.9 4.6 -8
v 4.9 4.7 -8
v 4.9 4.8 -8
v 5 4.7 -8
v 5 4.8 -8
v 5 4.9 -8
v 5.2 4.8 -8
v 5.2 4.9 -8
v 5.2 5 -8
v 5.3 4.9 -8
v 5.3 5 -8
v 5.3 5.1 -8
v 5.4 5 -8
v 5.4 5.1 -8
v 5.4 5.2 -8
v 5.6 5.1 -8
v 5.6 5.2 -8
v 5.6 5.3 -8
v 5.7 5.2 -8
v 5.7 5.3 -8
v 5.7 5.4 -8
v 5.9 5.3 -8
v 5.9 5.4 -8
v 5.9 5.5 -8
v 6.1 5.3 -8
v 6.1 5.4 -8
v 6.1 5.5 -8
v 6.3 5.2 -8
v 6.3 5.3 -8
v 6.3 5.4 -8
v 6.4 5.1 -8
v 6.4 5.2 -8
v 6.4 5.3 -8
v 6.6 5 -8
v 6.6 5.1 -8
v 6.6 5.2 -8
v 6.7 4.9 -8
v 6.7 5 -8
v 6.7 5.1 -8
v 6.8 4.8 -8
v 6.8 4.9 -8
v 6.8 5 -8
v 7 4.7 -8
v 7 4.8 -8
v 7 4.9 -8
v 7.1 4.6 -8
v 7.1 4.7 -8
v 7.1 4.8 -8
v 7.3 4.5 -8
v 7.3 4.6 -8
v 7.3 4.7 -8
v 7.4 4.5 -8
v 7.4 4.6 -8
v 7.5 2.8 -8
v 7.5 4.5 -8
v 4.4 2.7 -7.8
v 7.6 2.7 -7.8
v 4.4 2.7 -7.9
v 7.6 2.7 -7.9
v 4.5 2.8 -7.7
v 7.5 2.8 -7.7
v 4.5 2.8 -7.8
v 7.5 2.8 -7.8
v 4.5 2.8 -7.9
v 7.5 2.8 -7.9
v 4.5 2.8 -8
v 7.5 2.8 -8
v 4.6 4.4 -7.7
v 7.4 4.4 -7.7
v 4.6 4.4 -7.8
v 7.4 4.4 -7.8
v 4.7 4.6 -7.9
v 4.9 4.6 -7.9
v 7.1 4.6 -7.9
v 7.3 4.6 -7.9
v 4.7 4.6 -8
v 4.9 4.6 -8
v 7.1 4.6 -8
v 7.3 4.6 -8
v 4.9 4.7 -7.9
v 5 4.7 -7.9
v 7 4.7 -7.9
v 7.1 4.7 -7.9
v 4.9 4.7 -8
v 5 4.7 -8
v 7 4.7 -8
v 7.1 4.7 -8
v 5 4.8 -7.9
v 5.2 4.8 -7.9
v 6.8 4.8 -7.9
v 7 4.8 -7.9
v 5 4.8 -8
v 5.2 4.8 -8
v 6.8 4.8 -8
v 7 4.8 -8
v 5.2 4.9 -7.9
v 5.3 4.9 -7.9
v 6.7 4.9 -7.9
v 6.8 4.9 -7.9
v 5.2 4.9 -8
v 5.3 4.9 -8
v 6.7 4.9 -8
v 6.8 4.9 -8
v 5.3 5 -7.9
v 5.4 5 -7.9
v 6.6 5 -7.9
v 6.7 5 -7.9
v 5.3 5 -8
v 5.4 5 -8
v 6.6 5 -8
v 6.7 5 -8
v 5.4 5.1 -7.9
v 5.6 5.1 -7.9
v 6.4 5.1 -7.9
v 6.6 5.1 -7.9
v 5.4 5.1 -8
v 5.6 5.1 -8
v 6.4 5.1 -8
v 6.6 5.1 -8
v 5.9 5.2 -7.8
v 6.1 5.2 -7.8
v 5.6 5.2 -7.9
v 5.7 5.2 -7.9
v 5.9 5.2 -7.9
v 6.1 5.2 -7.9
v 6.3 5.2 -7.9
v 6.4 5.2 -7.9
v 5.6 5.2 -8
v 5.7 5.2 -8
v 6.3 5.2 -8
v 6.4 5.2 -8
v 5.8 5.3 -7.8
v 5.9 5.3 -7.8
v 6.1 5.3 -7.8
v 6.2 5.3 -7.8
v 5.7 5.3 -7.9
v 5.8 5.3 -7.9
v 5.9 5.3 -7.9
v 6.1 5.3 -7.9
v 6.2 5.3 -7.9
v 6.3 5.3 -7.9
v 5.7 5.3 -8
v 5.9 5.3 -8
v 6.1 5.3 -8
v 6.3 5.3 -8
v 4.6 2.9 -7.7
v 7.4 2.9 -7.7
v 4.6 2.9 -7.8
v 7.4 2.9 -7.8
v 4.5 4.5 -7.7
v 7.5 4.5 -7.7
v 4.5 4.5 -7.8
v 7.5 4.5 -7.8
v 4.5 4.5 -7.9
v 4.6 4.5 -7.9
v 4.7 4.5 -7.9
v 7.3 4.5 -7.9
v 7.4 4.5 -7.9
v 7.5 4.5 -7.9
v 4.5 4.5 -8
v 4.6 4.5 -8
v 4.7 4.5 -8
v 7.3 4.5 -8
v 7.4 4.5 -8
v 7.5 4.5 -8
v 4.4 4.6 -7.8
v 7.6 4.6 -7.8
v 4.4 4.6 -7.9
v 4.6 4.6 -7.9
v 4.7 4.6 -7.9
v 4.9 4.6 -7.9
v 7.1 4.6 -7.9
v 7.3 4.6 -7.9
v 7.4 4.6 -7.9
v 7.6 4.6 -7.9
v 4.6 4.6 -8
v 4.7 4.6 -8
v 7.3 4.6 -8
v 7.4 4.6 -8
v 4.7 4.7 -7.9
v 4.9 4.7 -7.9
v 7.1 4.7 -7.9
v 7.3 4.7 -7.9
v 4.7 4.7 -8
v 4.9 4.7 -8
v 7.1 4.7 -8
v 7.3 4.7 -8
v 4.9 4.8 -7.9
v 5 4.8 -7.9
v 7 4.8 -7.9
v 7.1 4.8 -7.9
v 4.9 4.8 -8
v 5 4.8 -8
v 7 4.8 -8
v 7.1 4.8 -8
v 5 4.9 -7.9
v 5.2 4.9 -7.9
v 6.8 4.9 -7.9
v 7 4.9 -7.9
v 5 4.9 -8
v 5.2 4.9 -8
v 6.8 4.9 -8
v 7 4.9 -8
v 5.2 5 -7.9
v 5.3 5 -7.9
v 6.7 5 -7.9
v 6.8 5 -7.9
v 5.2 5 -8
v 5.3 5 -8
v 6.7 5 -8
v 6.8 5 -8
v 5.3 5.1 -7.9
v 5.4 5.1 -7.9
v 6.6 5.1 -7.9
v 6.7 5.1 -7.9
v 5.3 5.1 -8
v 5.4 5.1 -8
v 6.6 5.1 -8
v 6.7 5.1 -8
v 5.4 5.2 -7.9
v 5.6 5.2 -7.9
v 6.4 5.2 -7.9
v 6.6 5.2 -7.9
v 5.4 5.2 -8
v 5.6 5.2 -8
v 6.4 5.2 -8
v 6.6 5.2 -8
v 5.6 5.3 -7.9
v 5.7 5.3 -7.9
v 6.3 5.3 -7.9
v 6.4 5.3 -7.9
v 5.6 5.3 -8
v 5.7 5.3 -8
v 6.3 5.3 -8
v 6.4 5.3 -8
v 5.8 5.4 -7.8
v 5.9 5.4 -7.8
v 6.1 5.4 -7.8
v 6.2 5.4 -7.8
v 5.7 5.4 -7.9
v 5.8 5.4 -7.9
v 5.9 5.4 -7.9
v 6.1 5.4 -7.9
v 6.2 5.4 -7.9
v 6.3 5.4 -7.9
v 5.7 5.4 -8
v 5.9 5.4 -8
v 6.1 5.4 -8
v 6.3 5.4 -8
v 5.9 5.5 -7.8
v 6.1 5.5 -7.8
v 5.9 5.5 -7.9
v 6.1 5.5 -7.9
v 5.9 5.5 -8
v 6.1 5.5 -8

# faces
f 3/2/1 2/2/1 1/2/1
f 4/2/1 2/2/1 3/2/1
f 9/2/1 6/2/1 5/2/1
f 10/2/1 6/2/1 9/2/1
f 11/2/1 8/2/1 7/2/1
f 12/2/1 8/2/1 11/2/1
f 15/2/1 14/2/1 13/2/1
f 16/2/1 14/2/1 15/2/1
f 19/2/1 18/2/1 17/2/1
f 20/2/1 18/2/1 19/2/1
f 23/2/1 22/2/1 21/2/1
f 24/2/1 22/2/1 23/2/1
f 27/2/1 26/2/1 25/2/1
f 28/2/1 26/2/1 27/2/1
f 31/2/1 30/2/1 29/2/1
f 32/2/1 30/2/1 31/2/1
f 35/2/1 34/2/1 33/2/1
f 36/2/1 34/2/1 35/2/1
f 39/2/1 38/2/1 37/2/1
f 40/2/1 38/2/1 39/2/1
f 43/2/1 42/2/1 41/2/1
f 44/2/1 42/2/1 43/2/1
f 47/2/1 46/2/1 45/2/1
f 48/2/1 46/2/1 47/2/1
f 51/3/1 50/3/1 49/3/1
f 52/3/1 50/3/1 51/3/1
f 55/3/1 54/3/1 53/3/1
f 56/3/1 54/3/1 55/3/1
f 60/3/1 58/3/1 57/3/1
f 61/2/1 59/2/1 58/2/1
f 61/3/1 58/3/1 60/3/1
f 62/2/1 59/2/1 61/2/1
f 65/2/1 64/2/1 63/2/1
f 66/2/1 64/2/1 65/2/1
f 69/2/1 68/2/1 67/2/1
f 70/2/1 68/2/1 69/2/1
f 73/2/1 72/2/1 71/2/1
f 74/2/1 72/2/1 73/2/1
f 77/2/1 76/2/1 75/2/1
f 78/2/1 76/2/1 77/2/1
f 81/2/1 80/2/1 79/2/1
f 82/2/1 80/2/1 81/2/1
f 85/2/1 84/2/1 83/2/1
f 86/2/1 84/2/1 85/2/1
f 89/2/1 88/2/1 87/2/1
f 90/2/1 88/2/1 89/2/1
f 93/2/1 92/2/1 91/2/1
f 94/2/1 92/2/1 93/2/1
f 97/2/1 96/2/1 95/2/1
f 98/2/1 96/2/1 97/2/1
f 99/2/2 100/2/2 101/2/2
f 101/2/2 100/2/2 102/2/2
f 103/2/2 104/2/2 105/2/2
f 105/2/2 104/2/2 106/2/2
f 107/2/2 108/2/2 109/2/2
f 109/2/2 108/2/2 110/2/2
f 111/2/2 112/2/2 113/2/2
f 113/2/2 112/2/2 114/2/2
f 115/2/2 116/2/2 117/2/2
f 117/2/2 116/2/2 118/2/2
f 119/2/2 120/2/2 121/2/2
f 121/2/2 120/2/2 122/2/2
f 123/2/2 124/2/2 125/2/2
f 125/2/2 124/2/2 126/2/2
f 127/2/2 128/2/2 129/2/2
f 129/2/2 128/2/2 130/2/2
f 131/2/2 132/2/2 133/2/2
f 133/2/2 132/2/2 134/2/2
f 135/3/2 136/3/2 137/3/2
f 137/3/2 136/3/2 138/3/2
f 139/3/2 140/3/2 142/3/2
f 140/2/2 141/2/2 143/2/2
f 142/3/2 140/3/2 143/3/2
f 143/2/2 141/2/2 144/2/2
f 145/3/2 146/3/2 147/3/2
f 147/3/2 146/3/2 148/3/2
f 149/2/2 150/2/2 151/2/2
f 151/2/2 150/2/2 152/2/2
f 153/2/2 154/2/2 155/2/2
f 155/2/2 154/2/2 156/2/2
f 157/2/2 158/2/2 159/2/2
f 159/2/2 158/2/2 160/2/2
f 161/2/2 162/2/2 163/2/2
f 163/2/2 162/2/2 164/2/2
f 165/2/2 166/2/2 167/2/2
f 167/2/2 166/2/2 168/2/2
f 169/2/2 170/2/2 171/2/2
f 171/2/2 170/2/2 172/2/2
f 173/2/2 174/2/2 175/2/2
f 175/2/2 174/2/2 176/2/2
f 177/2/2 178/2/2 179/2/2
f 179/2/2 178/2/2 180/2/2
f 181/2/2 182/2/2 183/2/2
f 183/2/2 182/2/2 184/2/2
f 185/2/2 186/2/2 189/2/2
f 189/2/2 186/2/2 190/2/2
f 187/2/2 188/2/2 191/2/2
f 191/2/2 188/2/2 192/2/2
f 193/2/2 194/2/2 195/2/2
f 195/2/2 194/2/2 196/2/2
f 199/2/3 198/2/3 197/2/3
f 200/2/3 198/2/3 199/2/3
f 201/2/3 199/2/3 197/2/3
f 202/2/3 198/2/3 200/2/3
f 203/2/3 201/2/3 197/2/3
f 203/2/3 202/2/3 201/2/3
f 204/2/3 198/2/3 202/2/3
f 204/2/3 202/2/3 203/2/3
f 207/2/3 206/2/3 205/2/3
f 208/2/3 206/2/3 207/2/3
f 211/1/3 210/1/3 209/1/3
f 212/1/3 210/1/3 211/1/3
f 213/2/3 212/2/3 211/2/3
f 214/2/3 212/2/3 213/2/3
f 218/3/3 216/3/3 215/3/3
f 219/3/3 216/3/3 218/3/3
f 221/3/3 218/3/3 217/3/3
f 221/3/3 220/3/3 219/3/3
f 221/3/3 219/3/3 218/3/3
f 222/3/3 220/3/3 221/3/3
f 223/3/3 220/3/3 222/3/3
f 224/3/3 220/3/3 223/3/3
f 225/3/3 223/3/3 222/3/3
f 226/3/3 223/3/3 225/3/3
f 227/2/3 213/2/3 211/2/3
f 227/1/3 214/1/3 213/1/3
f 228/2/3 212/2/3 214/2/3
f 228/1/3 214/1/3 227/1/3
f 229/1/3 211/1/3 209/1/3
f 229/2/3 227/2/3 211/2/3
f 229/2/3 228/2/3 227/2/3
f 230/2/3 212/2/3 228/2/3
f 230/2/3 228/2/3 229/2/3
f 230/1/3 210/1/3 212/1/3
f 231/1/3 229/1/3 209/1/3
f 231/1/3 230/1/3 229/1/3
f 232/1/3 210/1/3 230/1/3
f 232/1/3 230/1/3 231/1/3
f 233/2/3 207/2/3 205/2/3
f 234/2/3 206/2/3 208/2/3
f 235/2/3 233/2/3 205/2/3
f 235/2/3 234/2/3 233/2/3
f 236/2/3 206/2/3 234/2/3
f 236/2/3 234/2/3 235/2/3
f 239/2/3 238/2/3 237/2/3
f 240/2/3 238/2/3 239/2/3
f 242/2/3 241/2/3 240/2/3
f 243/2/3 241/2/3 242/2/3
f 245/2/3 244/2/3 243/2/3
f 246/2/3 244/2/3 245/2/3
f 248/2/3 247/2/3 246/2/3
f 249/2/3 247/2/3 248/2/3
f 251/2/3 250/2/3 249/2/3
f 252/2/3 250/2/3 251/2/3
f 254/2/3 253/2/3 252/2/3
f 255/2/3 253/2/3 254/2/3
f 257/2/3 256/2/3 255/2/3
f 258/2/3 256/2/3 257/2/3
f 260/2/3 259/2/3 258/2/3
f 261/2/3 259/2/3 260/2/3
f 265/2/3 263/2/3 262/2/3
f 266/2/3 263/2/3 265/2/3
f 268/2/3 265/2/3 264/2/3
f 269/2/3 265/2/3 268/2/3
f 271/2/3 268/2/3 267/2/3
f 272/2/3 268/2/3 271/2/3
f 274/2/3 271/2/3 270/2/3
f 275/2/3 271/2/3 274/2/3
f 277/2/3 274/2/3 273/2/3
f 278/2/3 274/2/3 277/2/3
f 280/2/3 277/2/3 276/2/3
f 281/2/3 277/2/3 280/2/3
f 283/2/3 280/2/3 279/2/3
f 284/2/3 280/2/3 283/2/3
f 285/2/3 283/2/3 282/2/3
f 286/2/3 283/2/3 285/2/3
f 287/2/4 288/2/4 289/2/4
f 289/2/4 288/2/4 290/2/4
f 290/2/4 288/2/4 291/2/4
f 291/2/4 288/2/4 292/2/4
f 293/2/4 294/2/4 295/2/4
f 296/3/4 297/3/4 298/3/4
f 298/3/4 297/3/4 299/3/4
f 293/2/4 295/2/4 300/2/4
f 293/2/4 300/2/4 301/2/4
f 301/2/4 300/2/4 302/2/4
f 287/2/4 289/2/4 305/2/4
f 303/2/4 304/2/4 306/2/4
f 287/2/4 305/2/4 307/2/4
f 305/2/4 306/2/4 307/2/4
f 306/2/4 304/2/4 308/2/4
f 307/2/4 306/2/4 308/2/4
f 309/2/4 310/2/4 311/2/4
f 309/2/4 311/2/4 313/2/4
f 311/2/4 312/2/4 313/2/4
f 313/2/4 312/2/4 314/2/4
f 314/2/4 315/2/4 316/2/4
f 316/2/4 315/2/4 317/2/4
f 317/2/4 318/2/4 319/2/4
f 319/2/4 318/2/4 320/2/4
f 320/2/4 321/2/4 322/2/4
f 322/2/4 321/2/4 323/2/4
f 323/2/4 324/2/4 325/2/4
f 325/2/4 324/2/4 326/2/4
f 326/2/4 327/2/4 328/2/4
f 328/2/4 327/2/4 329/2/4
f 329/2/4 330/2/4 331/2/4
f 331/2/4 330/2/4 332/2/4
f 332/2/4 333/2/4 334/2/4
f 334/2/4 333/2/4 335/2/4
f 335/2/4 336/2/4 337/2/4
f 337/2/4 336/2/4 338/2/4
f 337/4/4 338/4/4 340/4/4
f 338/2/4 339/2/4 341/2/4
f 340/4/4 338/4/4 341/4/4
f 341/2/4 339/2/4 342/2/4
f 340/2/4 341/2/4 344/2/4
f 344/2/4 341/2/4 345/2/4
f 343/2/4 344/2/4 347/2/4
f 347/2/4 344/2/4 348/2/4
f 346/2/4 347/2/4 350/2/4
f 350/2/4 347/2/4 351/2/4
f 349/2/4 350/2/4 353/2/4
f 353/2/4 350/2/4 354/2/4
f 352/2/4 353/2/4 356/2/4
f 356/2/4 353/2/4 357/2/4
f 355/2/4 356/2/4 359/2/4
f 359/2/4 356/2/4 360/2/4
f 358/2/4 359/2/4 362/2/4
f 362/2/4 359/2/4 363/2/4
f 309/2/4 313/2/4 364/2/4
f 361/2/4 362/2/4 365/2/4
f 365/2/4 362/2/4 366/2/4
f 309/2/4 364/2/4 367/2/4
f 364/2/4 365/2/4 367/2/4
f 367/2/4 365/2/4 368/2/4
f 309/2/4 367/2/4 369/2/4
f 369/2/4 367/2/4 370/2/4
f 373/2/5 372/2/5 371/2/5
f 374/2/5 372/2/5 373/2/5
f 377/2/5 376/2/5 375/2/5
f 378/2/5 376/2/5 377/2/5
f 381/2/5 380/2/5 379/2/5
f 382/2/5 380/2/5 381/2/5
f 385/2/5 384/2/5 383/2/5
f 386/2/5 384/2/5 385/2/5
f 391/2/5 388/2/5 387/2/5
f 392/2/5 388/2/5 391/2/5
f 393/2/5 390/2/5 389/2/5
f 394/2/5 390/2/5 393/2/5
f 399/2/5 396/2/5 395/2/5
f 400/2/5 396/2/5 399/2/5
f 401/2/5 398/2/5 397/2/5
f 402/2/5 398/2/5 401/2/5
f 407/2/5 404/2/5 403/2/5
f 408/2/5 404/2/5 407/2/5
f 409/2/5 406/2/5 405/2/5
f 410/2/5 406/2/5 409/2/5
f 415/2/5 412/2/5 411/2/5
f 416/2/5 412/2/5 415/2/5
f 417/2/5 414/2/5 413/2/5
f 418/2/5 414/2/5 417/2/5
f 423/2/5 420/2/5 419/2/5
f 424/2/5 420/2/5 423/2/5
f 425/2/5 422/2/5 421/2/5
f 426/2/5 422/2/5 425/2/5
f 431/2/5 428/2/5 427/2/5
f 432/2/5 428/2/5 431/2/5
f 433/2/5 430/2/5 429/2/5
f 434/2/5 430/2/5 433/2/5
f 439/3/5 436/3/5 435/3/5
f 440/3/5 436/3/5 439/3/5
f 443/2/5 438/2/5 437/2/5
f 444/2/5 438/2/5 443/2/5
f 445/2/5 442/2/5 441/2/5
f 446/2/5 442/2/5 445/2/5
f 452/3/5 448/3/5 447/3/5
f 453/3/5 448/3/5 452/3/5
f 454/3/5 450/3/5 449/3/5
f 455/3/5 450/3/5 454/3/5
f 457/2/5 453/2/5 452/2/5
f 457/2/5 452/2/5 451/2/5
f 458/4/5 454/4/5 453/4/5
f 458/2/5 453/2/5 457/2/5
f 459/2/5 456/2/5 455/2/5
f 459/4/5 454/4/5 458/4/5
f 459/2/5 455/2/5 454/2/5
f 460/2/5 456/2/5 459/2/5
f 461/2/6 462/2/6 463/2/6
f 463/2/6 462/2/6 464/2/6
f 465/2/6 466/2/6 467/2/6
f 467/2/6 466/2/6 468/2/6
f 469/2/6 470/2/6 475/2/6
f 475/2/6 470/2/6 476/2/6
f 471/2/6 472/2/6 477/2/6
f 477/2/6 472/2/6 478/2/6
f 473/2/6 474/2/6 479/2/6
f 479/2/6 474/2/6 480/2/6
f 481/2/6 482/2/6 483/2/6
f 483/2/6 482/2/6 484/2/6
f 484/2/6 482/2/6 485/2/6
f 485/2/6 482/2/6 486/2/6
f 486/2/6 482/2/6 487/2/6
f 487/2/6 482/2/6 488/2/6
f 488/2/6 482/2/6 489/2/6
f 489/2/6 482/2/6 490/2/6
f 484/2/6 485/2/6 491/2/6
f 491/2/6 485/2/6 492/2/6
f 488/2/6 489/2/6 493/2/6
f 493/2/6 489/2/6 494/2/6
f 495/2/6 496/2/6 499/2/6
f 499/2/6 496/2/6 500/2/6
f 497/2/6 498/2/6 501/2/6
f 501/2/6 498/2/6 502/2/6
f 503/2/6 504/2/6 507/2/6
f 507/2/6 504/2/6 508/2/6
f 505/2/6 506/2/6 509/2/6
f 509/2/6 506/2/6 510/2/6
f 511/2/6 512/2/6 515/2/6
f 515/2/6 512/2/6 516/2/6
f 513/2/6 514/2/6 517/2/6
f 517/2/6 514/2/6 518/2/6
f 519/2/6 520/2/6 523/2/6
f 523/2/6 520/2/6 524/2/6
f 521/2/6 522/2/6 525/2/6
f 525/2/6 522/2/6 526/2/6
f 527/2/6 528/2/6 531/2/6
f 531/2/6 528/2/6 532/2/6
f 529/2/6 530/2/6 533/2/6
f 533/2/6 530/2/6 534/2/6
f 535/2/6 536/2/6 539/2/6
f 539/2/6 536/2/6 540/2/6
f 537/2/6 538/2/6 541/2/6
f 541/2/6 538/2/6 542/2/6
f 543/2/6 544/2/6 547/2/6
f 547/2/6 544/2/6 548/2/6
f 545/2/6 546/2/6 549/2/6
f 549/2/6 546/2/6 550/2/6
f 551/3/6 552/3/6 556/3/6
f 556/3/6 552/3/6 557/3/6
f 553/3/6 554/3/6 558/3/6
f 558/3/6 554/3/6 559/3/6
f 556/2/6 557/2/6 561/2/6
f 555/2/6 556/2/6 561/2/6
f 561/2/6 557/2/6 562/2/6
f 559/2/6 560/2/6 563/2/6
f 558/2/6 559/2/6 563/2/6
f 563/2/6 560/2/6 564/2/6
f 565/3/6 566/3/6 567/3/6
f 567/3/6 566/3/6 568/3/6
f 567/2/6 568/2/6 569/2/6
f 569/2/6 568/2/6 570/2/6
