# MagicaVoxel @ Ephtracy

# group
o 

# material
mtllib Mur rajout.mtl
usemtl palette

# normals
vn -1 0 0
vn 1 0 0
vn 0 0 1
vn 0 0 -1
vn 0 -1 0
vn 0 1 0

# texcoords
vt 0.224609 0.5
vt 0.232422 0.5

# verts
v 2.4 2 -2.2
v 2.4 2 -6.1
v 2.4 8 -2.2
v 2.4 8 -6.1
v 4.2 2.1 -5.9
v 4.2 2.1 -6
v 4.2 2.6 -2.5
v 4.2 2.6 -5.8
v 4.2 2.9 -2.7
v 4.2 2.9 -5.5
v 4.2 6.9 -2.7
v 4.2 6.9 -5.5
v 4.2 6.9 -5.9
v 4.2 6.9 -6
v 4.2 7.2 -2.5
v 4.2 7.2 -5.8
v 4.3 2 -1.7
v 4.3 2 -2.2
v 4.3 2 -2.5
v 4.3 2 -5.9
v 4.3 2 -6.1
v 4.3 2 -6.5
v 4.3 2.3 -1.7
v 4.3 2.3 -2.2
v 4.3 2.3 -6.1
v 4.3 2.3 -6.5
v 4.3 2.4 -1.7
v 4.3 2.4 -2.1
v 4.3 2.4 -2.2
v 4.3 2.4 -6.1
v 4.3 2.4 -6.5
v 4.3 2.5 -2.5
v 4.3 2.5 -5.9
v 4.3 2.6 -2.5
v 4.3 2.6 -5.8
v 4.3 7.2 -2.5
v 4.3 7.2 -5.8
v 4.3 7.3 -2.5
v 4.3 7.3 -5.9
v 4.3 7.5 -4.8
v 4.3 7.5 -5.9
v 4.3 7.6 -1.7
v 4.3 7.6 -2.1
v 4.3 7.6 -2.2
v 4.3 7.6 -4.8
v 4.3 7.6 -5.9
v 4.3 7.6 -6.1
v 4.3 7.6 -6.5
v 4.3 7.7 -1.7
v 4.3 7.7 -2.2
v 4.3 7.7 -2.5
v 4.3 7.7 -5.9
v 4.3 7.7 -6.1
v 4.3 7.7 -6.5
v 4.3 8 -1.7
v 4.3 8 -2.2
v 4.3 8 -6.1
v 4.3 8 -6.5
v 4.4 2.1 -5.9
v 4.4 2.1 -6
v 4.4 2.3 -6
v 4.4 2.4 -1.8
v 4.4 2.4 -2.1
v 4.4 2.4 -5.9
v 4.4 2.4 -6
v 4.4 2.4 -6.1
v 4.4 2.4 -6.4
v 4.4 7.5 -4.8
v 4.4 7.5 -6
v 4.4 7.6 -1.8
v 4.4 7.6 -2.1
v 4.4 7.6 -4.8
v 4.4 7.6 -6
v 4.4 7.6 -6.1
v 4.4 7.6 -6.4
v 4.4 7.7 -2.5
v 4.4 7.7 -6
v 4.4 7.9 -2.5
v 4.4 7.9 -6
v 4.7 2.1 -6.1
v 4.7 2.1 -6.3
v 4.7 2.2 -6.1
v 4.7 2.2 -6.3
v 2.5 2 -2.5
v 2.5 2 -5.9
v 2.5 2.1 -5.9
v 2.5 2.1 -6
v 2.5 6.9 -5.9
v 2.5 6.9 -6
v 2.5 7.9 -2.5
v 2.5 7.9 -5.9
v 4.3 2.1 -5.9
v 4.3 2.1 -6
v 4.3 2.3 -6
v 4.3 2.4 -5.9
v 4.3 2.4 -6
v 4.3 2.6 -2.4
v 4.3 2.6 -5.8
v 4.3 2.9 -2.7
v 4.3 2.9 -5.5
v 4.3 6.9 -2.7
v 4.3 6.9 -5.5
v 4.3 7.2 -2.4
v 4.3 7.2 -5.8
v 4.3 7.5 -5.9
v 4.3 7.5 -6
v 4.3 7.6 -5.9
v 4.3 7.6 -6
v 4.3 7.7 -5.9
v 4.3 7.7 -6
v 4.3 7.9 -5.9
v 4.3 7.9 -6
v 4.4 2.1 -6.1
v 4.4 2.1 -6.3
v 4.4 2.2 -6.1
v 4.4 2.2 -6.3
v 4.4 2.4 -2.1
v 4.4 2.4 -2.2
v 4.4 2.4 -6
v 4.4 2.4 -6.1
v 4.4 2.5 -2.3
v 4.4 2.5 -5.9
v 4.4 2.6 -2.4
v 4.4 2.6 -5.8
v 4.4 7.2 -2.4
v 4.4 7.2 -5.8
v 4.4 7.3 -2.3
v 4.4 7.3 -5.9
v 4.4 7.5 -2.2
v 4.4 7.5 -6.1
v 4.4 7.6 -2.1
v 4.4 7.6 -2.2
v 4.5 2.3 -2.2
v 4.5 2.3 -6
v 4.5 2.4 -2.2
v 4.5 2.4 -6
v 4.5 7.5 -2.2
v 4.5 7.5 -6.1
v 4.5 7.6 -2.2
v 4.5 7.6 -6
v 4.5 7.6 -6.1
v 4.7 2.1 -2.2
v 4.7 2.1 -6
v 4.7 2.3 -2.2
v 4.7 2.3 -6
v 4.7 2.4 -1.8
v 4.7 2.4 -2.1
v 4.7 2.4 -6.1
v 4.7 2.4 -6.4
v 4.7 7.6 -1.8
v 4.7 7.6 -2.1
v 4.7 7.6 -2.2
v 4.7 7.6 -6
v 4.7 7.6 -6.1
v 4.7 7.6 -6.4
v 4.7 7.7 -2.2
v 4.7 7.7 -6
v 4.7 7.8 -2.2
v 4.7 7.8 -6
v 4.8 2 -1.7
v 4.8 2 -6.5
v 4.8 2.1 -2.2
v 4.8 2.1 -6
v 4.8 2.3 -1.7
v 4.8 2.3 -2.2
v 4.8 2.3 -6
v 4.8 2.3 -6.5
v 4.8 2.4 -1.7
v 4.8 2.4 -2.2
v 4.8 2.4 -6
v 4.8 2.4 -6.5
v 4.8 7.6 -1.7
v 4.8 7.6 -2.2
v 4.8 7.6 -6
v 4.8 7.6 -6.5
v 4.8 7.7 -1.7
v 4.8 7.7 -2.2
v 4.8 7.7 -6
v 4.8 7.7 -6.5
v 4.8 7.8 -2.2
v 4.8 7.8 -6
v 4.8 8 -1.7
v 4.8 8 -6.5
v 4.3 2 -1.7
v 4.3 2.3 -1.7
v 4.3 2.4 -1.7
v 4.3 7.6 -1.7
v 4.3 7.7 -1.7
v 4.3 8 -1.7
v 4.8 2 -1.7
v 4.8 2.3 -1.7
v 4.8 2.4 -1.7
v 4.8 7.6 -1.7
v 4.8 7.7 -1.7
v 4.8 8 -1.7
v 4.4 2.4 -1.8
v 4.4 7.6 -1.8
v 4.7 2.4 -1.8
v 4.7 7.6 -1.8
v 4.3 2.4 -2.1
v 4.3 7.6 -2.1
v 4.4 2.4 -2.1
v 4.4 7.6 -2.1
v 2.4 2 -2.2
v 2.4 8 -2.2
v 4.3 2 -2.2
v 4.3 2.3 -2.2
v 4.3 2.4 -2.2
v 4.3 7.6 -2.2
v 4.3 7.7 -2.2
v 4.3 8 -2.2
v 4.4 7.5 -2.2
v 4.4 7.6 -2.2
v 4.5 7.5 -2.2
v 4.5 7.6 -2.2
v 4.3 2.6 -5.8
v 4.3 7.2 -5.8
v 4.4 2.6 -5.8
v 4.4 7.2 -5.8
v 2.5 2 -5.9
v 2.5 2.1 -5.9
v 2.5 6.9 -5.9
v 2.5 7.9 -5.9
v 4.2 2.1 -5.9
v 4.2 6.9 -5.9
v 4.3 2 -5.9
v 4.3 2.5 -5.9
v 4.3 7.3 -5.9
v 4.3 7.5 -5.9
v 4.3 7.6 -5.9
v 4.3 7.7 -5.9
v 4.3 7.9 -5.9
v 2.5 2.1 -6
v 2.5 6.9 -6
v 4.2 2.1 -6
v 4.2 6.9 -6
v 4.3 2.1 -6
v 4.3 2.3 -6
v 4.3 2.4 -6
v 4.3 7.5 -6
v 4.3 7.6 -6
v 4.3 7.7 -6
v 4.3 7.9 -6
v 4.4 2.1 -6
v 4.4 2.3 -6
v 4.4 2.4 -6
v 4.4 7.5 -6
v 4.4 7.6 -6
v 4.4 7.7 -6
v 4.4 7.9 -6
v 4.5 2.3 -6
v 4.5 2.4 -6
v 4.7 2.1 -6
v 4.7 2.3 -6
v 4.7 7.6 -6
v 4.7 7.7 -6
v 4.7 7.8 -6
v 4.8 2.1 -6
v 4.8 2.3 -6
v 4.8 2.4 -6
v 4.8 7.6 -6
v 4.8 7.7 -6
v 4.8 7.8 -6
v 4.4 2.4 -6.1
v 4.4 7.5 -6.1
v 4.5 7.5 -6.1
v 4.5 7.6 -6.1
v 4.7 2.4 -6.1
v 4.7 7.6 -6.1
v 4.4 2.1 -6.3
v 4.4 2.2 -6.3
v 4.7 2.1 -6.3
v 4.7 2.2 -6.3
v 4.4 2.4 -2.1
v 4.4 7.6 -2.1
v 4.7 2.4 -2.1
v 4.7 7.6 -2.1
v 4.5 2.3 -2.2
v 4.5 2.4 -2.2
v 4.7 2.1 -2.2
v 4.7 2.3 -2.2
v 4.7 7.6 -2.2
v 4.7 7.7 -2.2
v 4.7 7.8 -2.2
v 4.8 2.1 -2.2
v 4.8 2.3 -2.2
v 4.8 2.4 -2.2
v 4.8 7.6 -2.2
v 4.8 7.7 -2.2
v 4.8 7.8 -2.2
v 4.3 2.6 -2.4
v 4.3 7.2 -2.4
v 4.4 2.6 -2.4
v 4.4 7.2 -2.4
v 2.5 2 -2.5
v 2.5 7.9 -2.5
v 4.2 2.6 -2.5
v 4.2 7.2 -2.5
v 4.3 2 -2.5
v 4.3 2.5 -2.5
v 4.3 2.6 -2.5
v 4.3 7.2 -2.5
v 4.3 7.3 -2.5
v 4.3 7.7 -2.5
v 4.4 7.7 -2.5
v 4.4 7.9 -2.5
v 4.3 7.5 -4.8
v 4.3 7.6 -4.8
v 4.4 7.5 -4.8
v 4.4 7.6 -4.8
v 4.2 2.6 -5.8
v 4.2 7.2 -5.8
v 4.3 2.6 -5.8
v 4.3 7.2 -5.8
v 4.3 2.1 -5.9
v 4.3 2.4 -5.9
v 4.4 2.1 -5.9
v 4.4 2.4 -5.9
v 2.4 2 -6.1
v 2.4 8 -6.1
v 4.3 2 -6.1
v 4.3 2.3 -6.1
v 4.3 2.4 -6.1
v 4.3 7.6 -6.1
v 4.3 7.7 -6.1
v 4.3 8 -6.1
v 4.4 2.1 -6.1
v 4.4 2.2 -6.1
v 4.4 2.4 -6.1
v 4.4 7.6 -6.1
v 4.7 2.1 -6.1
v 4.7 2.2 -6.1
v 4.4 2.4 -6.4
v 4.4 7.6 -6.4
v 4.7 2.4 -6.4
v 4.7 7.6 -6.4
v 4.3 2 -6.5
v 4.3 2.3 -6.5
v 4.3 2.4 -6.5
v 4.3 7.6 -6.5
v 4.3 7.7 -6.5
v 4.3 8 -6.5
v 4.8 2 -6.5
v 4.8 2.3 -6.5
v 4.8 2.4 -6.5
v 4.8 7.6 -6.5
v 4.8 7.7 -6.5
v 4.8 8 -6.5
v 4.3 2 -1.7
v 4.8 2 -1.7
v 2.4 2 -2.2
v 4.3 2 -2.2
v 2.5 2 -2.5
v 4.3 2 -2.5
v 2.5 2 -5.9
v 4.3 2 -5.9
v 2.4 2 -6.1
v 4.3 2 -6.1
v 4.3 2 -6.5
v 4.8 2 -6.5
v 4.4 2.2 -6.1
v 4.7 2.2 -6.1
v 4.4 2.2 -6.3
v 4.7 2.2 -6.3
v 4.3 2.4 -5.9
v 4.4 2.4 -5.9
v 4.3 2.4 -6
v 4.4 2.4 -6
v 4.2 2.6 -2.5
v 4.3 2.6 -2.5
v 4.2 2.6 -5.8
v 4.3 2.6 -5.8
v 2.5 6.9 -5.9
v 4.2 6.9 -5.9
v 2.5 6.9 -6
v 4.2 6.9 -6
v 4.3 7.2 -2.4
v 4.4 7.2 -2.4
v 4.3 7.2 -5.8
v 4.4 7.2 -5.8
v 4.4 7.5 -2.2
v 4.5 7.5 -2.2
v 4.4 7.5 -6.1
v 4.5 7.5 -6.1
v 4.3 7.6 -1.7
v 4.8 7.6 -1.7
v 4.4 7.6 -1.8
v 4.7 7.6 -1.8
v 4.3 7.6 -2.1
v 4.4 7.6 -2.1
v 4.7 7.6 -2.1
v 4.4 7.6 -2.2
v 4.5 7.6 -2.2
v 4.7 7.6 -2.2
v 4.8 7.6 -2.2
v 4.3 7.6 -4.8
v 4.4 7.6 -4.8
v 4.3 7.6 -5.9
v 4.3 7.6 -6
v 4.4 7.6 -6
v 4.5 7.6 -6
v 4.7 7.6 -6
v 4.8 7.6 -6
v 4.3 7.6 -6.1
v 4.4 7.6 -6.1
v 4.5 7.6 -6.1
v 4.7 7.6 -6.1
v 4.4 7.6 -6.4
v 4.7 7.6 -6.4
v 4.3 7.6 -6.5
v 4.8 7.6 -6.5
v 4.7 7.8 -2.2
v 4.8 7.8 -2.2
v 4.7 7.8 -6
v 4.8 7.8 -6
v 2.5 7.9 -2.5
v 4.4 7.9 -2.5
v 2.5 7.9 -5.9
v 4.3 7.9 -5.9
v 4.3 7.9 -6
v 4.4 7.9 -6
v 4.7 2.1 -2.2
v 4.8 2.1 -2.2
v 2.5 2.1 -5.9
v 4.2 2.1 -5.9
v 4.3 2.1 -5.9
v 4.4 2.1 -5.9
v 2.5 2.1 -6
v 4.2 2.1 -6
v 4.3 2.1 -6
v 4.4 2.1 -6
v 4.7 2.1 -6
v 4.8 2.1 -6
v 4.4 2.1 -6.1
v 4.7 2.1 -6.1
v 4.4 2.1 -6.3
v 4.7 2.1 -6.3
v 4.5 2.3 -2.2
v 4.7 2.3 -2.2
v 4.5 2.3 -6
v 4.7 2.3 -6
v 4.3 2.4 -1.7
v 4.8 2.4 -1.7
v 4.4 2.4 -1.8
v 4.7 2.4 -1.8
v 4.3 2.4 -2.1
v 4.4 2.4 -2.1
v 4.7 2.4 -2.1
v 4.4 2.4 -2.2
v 4.5 2.4 -2.2
v 4.8 2.4 -2.2
v 4.4 2.4 -6
v 4.5 2.4 -6
v 4.8 2.4 -6
v 4.3 2.4 -6.1
v 4.4 2.4 -6.1
v 4.7 2.4 -6.1
v 4.4 2.4 -6.4
v 4.7 2.4 -6.4
v 4.3 2.4 -6.5
v 4.8 2.4 -6.5
v 4.3 2.6 -2.4
v 4.4 2.6 -2.4
v 4.3 2.6 -5.8
v 4.4 2.6 -5.8
v 4.2 7.2 -2.5
v 4.3 7.2 -2.5
v 4.2 7.2 -5.8
v 4.3 7.2 -5.8
v 4.3 7.5 -4.8
v 4.4 7.5 -4.8
v 4.3 7.5 -5.9
v 4.3 7.5 -6
v 4.4 7.5 -6
v 4.3 7.7 -2.5
v 4.4 7.7 -2.5
v 4.3 7.7 -5.9
v 4.3 7.7 -6
v 4.4 7.7 -6
v 4.3 8 -1.7
v 4.8 8 -1.7
v 2.4 8 -2.2
v 4.3 8 -2.2
v 2.4 8 -6.1
v 4.3 8 -6.1
v 4.3 8 -6.5
v 4.8 8 -6.5

# faces
f 3/2/1 2/2/1 1/2/1
f 4/2/1 2/2/1 3/2/1
f 9/2/1 8/2/1 7/2/1
f 10/2/1 8/2/1 9/2/1
f 11/2/1 9/2/1 7/2/1
f 11/1/1 10/1/1 9/1/1
f 12/2/1 8/2/1 10/2/1
f 12/1/1 10/1/1 11/1/1
f 13/2/1 6/2/1 5/2/1
f 14/2/1 6/2/1 13/2/1
f 15/2/1 11/2/1 7/2/1
f 15/2/1 12/2/1 11/2/1
f 16/2/1 8/2/1 12/2/1
f 16/2/1 12/2/1 15/2/1
f 23/2/1 18/2/1 17/2/1
f 24/2/1 18/2/1 23/2/1
f 25/2/1 22/2/1 21/2/1
f 26/2/1 22/2/1 25/2/1
f 27/1/1 24/1/1 23/1/1
f 28/1/1 24/1/1 27/1/1
f 29/1/1 24/1/1 28/1/1
f 30/1/1 26/1/1 25/1/1
f 31/1/1 26/1/1 30/1/1
f 32/2/1 20/2/1 19/2/1
f 33/2/1 20/2/1 32/2/1
f 34/1/1 33/1/1 32/1/1
f 35/1/1 33/1/1 34/1/1
f 37/1/1 33/1/1 35/1/1
f 38/1/1 37/1/1 36/1/1
f 39/1/1 33/1/1 37/1/1
f 39/1/1 37/1/1 38/1/1
f 40/2/1 39/2/1 38/2/1
f 41/2/1 39/2/1 40/2/1
f 43/2/1 29/2/1 28/2/1
f 44/2/1 29/2/1 43/2/1
f 45/2/1 40/2/1 38/2/1
f 49/1/1 43/1/1 42/1/1
f 49/1/1 44/1/1 43/1/1
f 50/1/1 44/1/1 49/1/1
f 51/2/1 46/2/1 45/2/1
f 51/2/1 45/2/1 38/2/1
f 52/2/1 46/2/1 51/2/1
f 53/1/1 48/1/1 47/1/1
f 54/1/1 48/1/1 53/1/1
f 55/2/1 50/2/1 49/2/1
f 56/2/1 50/2/1 55/2/1
f 57/2/1 54/2/1 53/2/1
f 58/2/1 54/2/1 57/2/1
f 61/2/1 60/2/1 59/2/1
f 64/2/1 61/2/1 59/2/1
f 65/2/1 61/2/1 64/2/1
f 70/2/1 63/2/1 62/2/1
f 71/2/1 63/2/1 70/2/1
f 72/2/1 69/2/1 68/2/1
f 73/2/1 69/2/1 72/2/1
f 74/2/1 67/2/1 66/2/1
f 75/2/1 67/2/1 74/2/1
f 78/2/1 77/2/1 76/2/1
f 79/2/1 77/2/1 78/2/1
f 82/2/1 81/2/1 80/2/1
f 83/2/1 81/2/1 82/2/1
f 84/2/2 85/2/2 86/2/2
f 84/2/2 86/2/2 88/2/2
f 86/2/2 87/2/2 88/2/2
f 88/2/2 87/2/2 89/2/2
f 84/2/2 88/2/2 90/2/2
f 90/2/2 88/2/2 91/2/2
f 92/2/2 93/2/2 94/2/2
f 92/2/2 94/2/2 95/2/2
f 95/2/2 94/2/2 96/2/2
f 97/2/2 98/2/2 99/2/2
f 99/2/2 98/2/2 100/2/2
f 97/2/2 99/2/2 101/2/2
f 99/1/2 100/1/2 101/1/2
f 100/2/2 98/2/2 102/2/2
f 101/1/2 100/1/2 102/1/2
f 97/2/2 101/2/2 103/2/2
f 101/2/2 102/2/2 103/2/2
f 102/2/2 98/2/2 104/2/2
f 103/2/2 102/2/2 104/2/2
f 105/2/2 106/2/2 107/2/2
f 107/2/2 106/2/2 108/2/2
f 109/2/2 110/2/2 111/2/2
f 111/2/2 110/2/2 112/2/2
f 113/2/2 114/2/2 115/2/2
f 115/2/2 114/2/2 116/2/2
f 117/2/2 118/2/2 121/2/2
f 119/2/2 120/2/2 121/2/2
f 118/2/2 119/2/2 121/2/2
f 121/2/2 120/2/2 122/2/2
f 121/1/2 122/1/2 123/1/2
f 123/1/2 122/1/2 124/1/2
f 121/1/2 123/1/2 125/1/2
f 124/1/2 122/1/2 126/1/2
f 117/2/2 121/2/2 127/2/2
f 125/1/2 126/1/2 127/1/2
f 121/1/2 125/1/2 127/1/2
f 126/1/2 122/1/2 128/1/2
f 127/1/2 126/1/2 128/1/2
f 122/2/2 120/2/2 128/2/2
f 117/2/2 127/2/2 129/2/2
f 127/2/2 128/2/2 129/2/2
f 128/2/2 120/2/2 130/2/2
f 129/2/2 128/2/2 130/2/2
f 117/2/2 129/2/2 131/2/2
f 131/2/2 129/2/2 132/2/2
f 133/2/2 134/2/2 135/2/2
f 135/2/2 134/2/2 136/2/2
f 137/2/2 138/2/2 139/2/2
f 139/2/2 138/2/2 140/2/2
f 140/2/2 138/2/2 141/2/2
f 142/2/2 143/2/2 144/2/2
f 144/2/2 143/2/2 145/2/2
f 146/2/2 147/2/2 150/2/2
f 150/2/2 147/2/2 151/2/2
f 148/2/2 149/2/2 154/2/2
f 154/2/2 149/2/2 155/2/2
f 152/2/2 153/2/2 156/2/2
f 156/2/2 153/2/2 157/2/2
f 156/2/2 157/2/2 158/2/2
f 158/2/2 157/2/2 159/2/2
f 160/2/2 161/2/2 162/2/2
f 162/2/2 161/2/2 163/2/2
f 160/2/2 162/2/2 164/2/2
f 164/2/2 162/2/2 165/2/2
f 163/2/2 161/2/2 166/2/2
f 166/2/2 161/2/2 167/2/2
f 164/1/2 165/1/2 168/1/2
f 168/1/2 165/1/2 169/1/2
f 166/1/2 167/1/2 170/1/2
f 170/1/2 167/1/2 171/1/2
f 172/1/2 173/1/2 176/1/2
f 176/1/2 173/1/2 177/1/2
f 174/1/2 175/1/2 178/1/2
f 178/1/2 175/1/2 179/1/2
f 176/2/2 177/2/2 180/2/2
f 178/2/2 179/2/2 181/2/2
f 176/2/2 180/2/2 182/2/2
f 180/2/2 181/2/2 182/2/2
f 181/2/2 179/2/2 183/2/2
f 182/2/2 181/2/2 183/2/2
f 190/2/3 185/2/3 184/2/3
f 191/1/3 186/1/3 185/1/3
f 191/2/3 185/2/3 190/2/3
f 192/1/3 186/1/3 191/1/3
f 193/1/3 188/1/3 187/1/3
f 194/2/3 189/2/3 188/2/3
f 194/1/3 188/1/3 193/1/3
f 195/2/3 189/2/3 194/2/3
f 198/2/3 197/2/3 196/2/3
f 199/2/3 197/2/3 198/2/3
f 202/2/3 201/2/3 200/2/3
f 203/2/3 201/2/3 202/2/3
f 206/2/3 205/2/3 204/2/3
f 207/2/3 205/2/3 206/2/3
f 208/2/3 205/2/3 207/2/3
f 209/2/3 205/2/3 208/2/3
f 210/2/3 205/2/3 209/2/3
f 211/2/3 205/2/3 210/2/3
f 214/2/3 213/2/3 212/2/3
f 215/2/3 213/2/3 214/2/3
f 218/1/3 217/1/3 216/1/3
f 219/1/3 217/1/3 218/1/3
f 224/2/3 221/2/3 220/2/3
f 225/2/3 223/2/3 222/2/3
f 226/2/3 224/2/3 220/2/3
f 226/2/3 225/2/3 224/2/3
f 227/2/3 225/2/3 226/2/3
f 228/2/3 223/2/3 225/2/3
f 228/2/3 225/2/3 227/2/3
f 229/2/3 223/2/3 228/2/3
f 230/2/3 223/2/3 229/2/3
f 231/2/3 223/2/3 230/2/3
f 232/2/3 223/2/3 231/2/3
f 235/2/3 234/2/3 233/2/3
f 236/2/3 234/2/3 235/2/3
f 244/2/3 238/2/3 237/2/3
f 245/1/3 239/1/3 238/1/3
f 245/2/3 238/2/3 244/2/3
f 246/1/3 239/1/3 245/1/3
f 247/2/3 241/2/3 240/2/3
f 248/2/3 241/2/3 247/2/3
f 249/2/3 243/2/3 242/2/3
f 250/2/3 243/2/3 249/2/3
f 254/1/3 252/1/3 251/1/3
f 258/2/3 254/2/3 253/2/3
f 259/1/3 252/1/3 254/1/3
f 259/2/3 254/2/3 258/2/3
f 260/1/3 252/1/3 259/1/3
f 261/1/3 256/1/3 255/1/3
f 262/2/3 257/2/3 256/2/3
f 262/1/3 256/1/3 261/1/3
f 263/2/3 257/2/3 262/2/3
f 266/2/3 265/2/3 264/2/3
f 268/2/3 266/2/3 264/2/3
f 268/2/3 267/2/3 266/2/3
f 269/2/3 267/2/3 268/2/3
f 272/2/3 271/2/3 270/2/3
f 273/2/3 271/2/3 272/2/3
f 274/2/4 275/2/4 276/2/4
f 276/2/4 275/2/4 277/2/4
f 278/1/4 279/1/4 281/1/4
f 280/2/4 281/2/4 285/2/4
f 281/1/4 279/1/4 286/1/4
f 285/2/4 281/2/4 286/2/4
f 286/1/4 279/1/4 287/1/4
f 282/1/4 283/1/4 288/1/4
f 283/2/4 284/2/4 289/2/4
f 288/1/4 283/1/4 289/1/4
f 289/2/4 284/2/4 290/2/4
f 291/1/4 292/1/4 293/1/4
f 293/1/4 292/1/4 294/1/4
f 295/2/4 296/2/4 297/2/4
f 297/2/4 296/2/4 298/2/4
f 295/2/4 297/2/4 299/2/4
f 299/2/4 297/2/4 300/2/4
f 300/2/4 297/2/4 301/2/4
f 298/2/4 296/2/4 302/2/4
f 302/2/4 296/2/4 303/2/4
f 303/2/4 296/2/4 304/2/4
f 304/2/4 296/2/4 305/2/4
f 305/2/4 296/2/4 306/2/4
f 307/2/4 308/2/4 309/2/4
f 309/2/4 308/2/4 310/2/4
f 311/2/4 312/2/4 313/2/4
f 313/2/4 312/2/4 314/2/4
f 315/2/4 316/2/4 317/2/4
f 317/2/4 316/2/4 318/2/4
f 319/2/4 320/2/4 321/2/4
f 321/2/4 320/2/4 322/2/4
f 322/2/4 320/2/4 323/2/4
f 323/2/4 320/2/4 324/2/4
f 324/2/4 320/2/4 325/2/4
f 325/2/4 320/2/4 326/2/4
f 323/2/4 324/2/4 329/2/4
f 329/2/4 324/2/4 330/2/4
f 327/2/4 328/2/4 331/2/4
f 331/2/4 328/2/4 332/2/4
f 333/2/4 334/2/4 335/2/4
f 335/2/4 334/2/4 336/2/4
f 337/2/4 338/2/4 343/2/4
f 338/1/4 339/1/4 344/1/4
f 343/2/4 338/2/4 344/2/4
f 344/1/4 339/1/4 345/1/4
f 340/1/4 341/1/4 346/1/4
f 341/2/4 342/2/4 347/2/4
f 346/1/4 341/1/4 347/1/4
f 347/2/4 342/2/4 348/2/4
f 352/2/5 350/2/5 349/2/5
f 353/2/5 352/2/5 351/2/5
f 354/2/5 350/2/5 352/2/5
f 354/2/5 352/2/5 353/2/5
f 355/2/5 353/2/5 351/2/5
f 356/2/5 350/2/5 354/2/5
f 357/2/5 355/2/5 351/2/5
f 357/2/5 356/2/5 355/2/5
f 358/2/5 350/2/5 356/2/5
f 358/2/5 356/2/5 357/2/5
f 359/2/5 350/2/5 358/2/5
f 360/2/5 350/2/5 359/2/5
f 363/2/5 362/2/5 361/2/5
f 364/2/5 362/2/5 363/2/5
f 367/2/5 366/2/5 365/2/5
f 368/2/5 366/2/5 367/2/5
f 371/2/5 370/2/5 369/2/5
f 372/2/5 370/2/5 371/2/5
f 375/2/5 374/2/5 373/2/5
f 376/2/5 374/2/5 375/2/5
f 379/1/5 378/1/5 377/1/5
f 380/1/5 378/1/5 379/1/5
f 383/2/5 382/2/5 381/2/5
f 384/2/5 382/2/5 383/2/5
f 387/1/5 386/1/5 385/1/5
f 388/1/5 386/1/5 387/1/5
f 389/1/5 387/1/5 385/1/5
f 390/1/5 387/1/5 389/1/5
f 391/1/5 386/1/5 388/1/5
f 392/1/5 391/1/5 390/1/5
f 393/1/5 391/1/5 392/1/5
f 394/1/5 386/1/5 391/1/5
f 394/1/5 391/1/5 393/1/5
f 395/1/5 386/1/5 394/1/5
f 398/2/5 397/2/5 396/2/5
f 399/2/5 397/2/5 398/2/5
f 400/2/5 397/2/5 399/2/5
f 401/2/5 394/2/5 393/2/5
f 402/2/5 394/2/5 401/2/5
f 406/1/5 403/1/5 402/1/5
f 406/1/5 402/1/5 401/1/5
f 407/1/5 403/1/5 406/1/5
f 408/1/5 405/1/5 404/1/5
f 409/1/5 403/1/5 407/1/5
f 410/1/5 408/1/5 404/1/5
f 410/1/5 409/1/5 408/1/5
f 411/1/5 403/1/5 409/1/5
f 411/1/5 409/1/5 410/1/5
f 414/2/5 413/2/5 412/2/5
f 415/2/5 413/2/5 414/2/5
f 418/2/5 417/2/5 416/2/5
f 419/2/5 417/2/5 418/2/5
f 420/2/5 417/2/5 419/2/5
f 421/2/5 417/2/5 420/2/5
f 424/2/6 425/2/6 428/2/6
f 428/2/6 425/2/6 429/2/6
f 426/2/6 427/2/6 430/2/6
f 430/2/6 427/2/6 431/2/6
f 422/2/6 423/2/6 432/2/6
f 432/2/6 423/2/6 433/2/6
f 434/2/6 435/2/6 436/2/6
f 436/2/6 435/2/6 437/2/6
f 438/2/6 439/2/6 440/2/6
f 440/2/6 439/2/6 441/2/6
f 442/1/6 443/1/6 444/1/6
f 444/1/6 443/1/6 445/1/6
f 442/1/6 444/1/6 446/1/6
f 446/1/6 444/1/6 447/1/6
f 445/1/6 443/1/6 448/1/6
f 447/1/6 448/1/6 449/1/6
f 449/1/6 448/1/6 450/1/6
f 448/1/6 443/1/6 451/1/6
f 450/1/6 448/1/6 451/1/6
f 449/2/6 450/2/6 452/2/6
f 452/2/6 450/2/6 453/2/6
f 452/1/6 453/1/6 456/1/6
f 453/1/6 454/1/6 456/1/6
f 456/1/6 454/1/6 457/1/6
f 455/1/6 456/1/6 458/1/6
f 457/1/6 454/1/6 459/1/6
f 455/1/6 458/1/6 460/1/6
f 458/1/6 459/1/6 460/1/6
f 459/1/6 454/1/6 461/1/6
f 460/1/6 459/1/6 461/1/6
f 462/1/6 463/1/6 464/1/6
f 464/1/6 463/1/6 465/1/6
f 466/2/6 467/2/6 468/2/6
f 468/2/6 467/2/6 469/2/6
f 470/2/6 471/2/6 472/2/6
f 472/2/6 471/2/6 473/2/6
f 473/2/6 471/2/6 474/2/6
f 475/2/6 476/2/6 477/2/6
f 477/2/6 476/2/6 478/2/6
f 478/2/6 476/2/6 479/2/6
f 480/2/6 481/2/6 483/2/6
f 482/2/6 483/2/6 484/2/6
f 483/2/6 481/2/6 485/2/6
f 484/2/6 483/2/6 485/2/6
f 485/2/6 481/2/6 486/2/6
f 486/2/6 481/2/6 487/2/6
