# MagicaVoxel @ Ephtracy

# group
o 

# material
mtllib Porte.mtl
usemtl palette

# normals
vn -1 0 0
vn 1 0 0
vn 0 0 1
vn 0 0 -1
vn 0 -1 0
vn 0 1 0

# texcoords
vt 0.224609 0.5
vt 0.232422 0.5
vt 0.388672 0.5

# verts
v 2.4 2 -2.2
v 2.4 2 -4.9
v 2.4 8 -2.2
v 2.4 8 -4.9
v 4.2 2.1 -4.7
v 4.2 2.1 -4.8
v 4.2 2.6 -2.5
v 4.2 2.6 -4.6
v 4.2 2.9 -2.7
v 4.2 2.9 -4.3
v 4.2 4.8 -2.7
v 4.2 4.8 -4.3
v 4.2 5.1 -2.7
v 4.2 5.1 -4.3
v 4.2 6.9 -2.7
v 4.2 6.9 -4.3
v 4.2 6.9 -4.7
v 4.2 6.9 -4.8
v 4.2 7.2 -2.5
v 4.2 7.2 -4.6
v 4.3 2 -1.7
v 4.3 2 -2.2
v 4.3 2 -2.5
v 4.3 2 -4.7
v 4.3 2 -4.9
v 4.3 2 -5.3
v 4.3 2.3 -1.7
v 4.3 2.3 -2.2
v 4.3 2.3 -4.9
v 4.3 2.3 -5.3
v 4.3 2.4 -1.7
v 4.3 2.4 -2.1
v 4.3 2.4 -2.2
v 4.3 2.4 -4.9
v 4.3 2.4 -5.3
v 4.3 2.5 -2.5
v 4.3 2.5 -4.7
v 4.3 2.6 -2.5
v 4.3 2.6 -4.6
v 4.3 7.2 -2.5
v 4.3 7.2 -4.6
v 4.3 7.3 -2.5
v 4.3 7.3 -4.7
v 4.3 7.6 -1.7
v 4.3 7.6 -2.1
v 4.3 7.6 -2.2
v 4.3 7.6 -4.9
v 4.3 7.6 -5.3
v 4.3 7.7 -1.7
v 4.3 7.7 -2.2
v 4.3 7.7 -2.5
v 4.3 7.7 -4.7
v 4.3 7.7 -4.9
v 4.3 7.7 -5.3
v 4.3 8 -1.7
v 4.3 8 -2.2
v 4.3 8 -4.9
v 4.3 8 -5.3
v 4.4 2.4 -1.8
v 4.4 2.4 -2.1
v 4.4 2.4 -4.9
v 4.4 2.4 -5.2
v 4.4 7.6 -1.8
v 4.4 7.6 -2.1
v 4.4 7.6 -4.9
v 4.4 7.6 -5.2
v 4.4 7.7 -2.5
v 4.4 7.7 -4.8
v 4.4 7.9 -2.5
v 4.4 7.9 -4.8
v 4.7 2.1 -4.9
v 4.7 2.1 -5.1
v 4.7 2.2 -4.9
v 4.7 2.2 -5.1
v 2.5 2 -2.5
v 2.5 2 -4.7
v 2.5 2.1 -4.7
v 2.5 2.1 -4.8
v 2.5 6.9 -4.7
v 2.5 6.9 -4.8
v 2.5 7.9 -2.5
v 2.5 7.9 -4.7
v 4.3 2.6 -2.4
v 4.3 2.6 -4.6
v 4.3 2.9 -2.7
v 4.3 2.9 -4.3
v 4.3 4.8 -2.4
v 4.3 4.8 -2.7
v 4.3 4.8 -4.3
v 4.3 5.1 -2.4
v 4.3 5.1 -2.7
v 4.3 5.1 -4.3
v 4.3 6.9 -2.7
v 4.3 6.9 -4.3
v 4.3 7.2 -2.4
v 4.3 7.2 -4.6
v 4.3 7.7 -4.7
v 4.3 7.7 -4.8
v 4.3 7.9 -4.7
v 4.3 7.9 -4.8
v 4.4 2.1 -4.9
v 4.4 2.1 -5.1
v 4.4 2.2 -4.9
v 4.4 2.2 -5.1
v 4.4 2.4 -2.1
v 4.4 2.4 -2.2
v 4.4 2.4 -4.8
v 4.4 2.4 -4.9
v 4.4 2.5 -2.3
v 4.4 2.5 -4.7
v 4.4 2.6 -2.4
v 4.4 2.6 -4.6
v 4.4 4.8 -2.4
v 4.4 4.8 -2.7
v 4.4 5.1 -2.4
v 4.4 5.1 -2.7
v 4.4 7.2 -2.4
v 4.4 7.2 -4.6
v 4.4 7.3 -2.3
v 4.4 7.3 -4.7
v 4.4 7.5 -2.2
v 4.4 7.5 -4.9
v 4.4 7.6 -2.1
v 4.4 7.6 -2.2
v 4.5 2.3 -2.2
v 4.5 2.3 -4.8
v 4.5 2.4 -2.2
v 4.5 2.4 -4.8
v 4.5 7.5 -2.2
v 4.5 7.5 -4.9
v 4.5 7.6 -2.2
v 4.5 7.6 -4.8
v 4.5 7.6 -4.9
v 4.7 2.1 -2.2
v 4.7 2.1 -4.8
v 4.7 2.3 -2.2
v 4.7 2.3 -4.8
v 4.7 2.4 -1.8
v 4.7 2.4 -2.1
v 4.7 2.4 -4.9
v 4.7 2.4 -5.2
v 4.7 7.6 -1.8
v 4.7 7.6 -2.1
v 4.7 7.6 -2.2
v 4.7 7.6 -4.8
v 4.7 7.6 -4.9
v 4.7 7.6 -5.2
v 4.7 7.7 -2.2
v 4.7 7.7 -4.8
v 4.7 7.8 -2.2
v 4.7 7.8 -4.8
v 4.8 2 -1.7
v 4.8 2 -5.3
v 4.8 2.1 -2.2
v 4.8 2.1 -4.8
v 4.8 2.3 -1.7
v 4.8 2.3 -2.2
v 4.8 2.3 -4.8
v 4.8 2.3 -5.3
v 4.8 2.4 -1.7
v 4.8 2.4 -2.2
v 4.8 2.4 -4.8
v 4.8 2.4 -5.3
v 4.8 7.6 -1.7
v 4.8 7.6 -2.2
v 4.8 7.6 -4.8
v 4.8 7.6 -5.3
v 4.8 7.7 -1.7
v 4.8 7.7 -2.2
v 4.8 7.7 -4.8
v 4.8 7.7 -5.3
v 4.8 7.8 -2.2
v 4.8 7.8 -4.8
v 4.8 8 -1.7
v 4.8 8 -5.3
v 4.3 2 -1.7
v 4.3 2.3 -1.7
v 4.3 2.4 -1.7
v 4.3 7.6 -1.7
v 4.3 7.7 -1.7
v 4.3 8 -1.7
v 4.8 2 -1.7
v 4.8 2.3 -1.7
v 4.8 2.4 -1.7
v 4.8 7.6 -1.7
v 4.8 7.7 -1.7
v 4.8 8 -1.7
v 4.4 2.4 -1.8
v 4.4 7.6 -1.8
v 4.7 2.4 -1.8
v 4.7 7.6 -1.8
v 4.3 2.4 -2.1
v 4.3 7.6 -2.1
v 4.4 2.4 -2.1
v 4.4 7.6 -2.1
v 2.4 2 -2.2
v 2.4 8 -2.2
v 4.3 2 -2.2
v 4.3 2.3 -2.2
v 4.3 2.4 -2.2
v 4.3 7.6 -2.2
v 4.3 7.7 -2.2
v 4.3 8 -2.2
v 4.4 7.5 -2.2
v 4.4 7.6 -2.2
v 4.5 7.5 -2.2
v 4.5 7.6 -2.2
v 4.3 2.6 -4.6
v 4.3 7.2 -4.6
v 4.4 2.6 -4.6
v 4.4 7.2 -4.6
v 2.5 2 -4.7
v 2.5 2.1 -4.7
v 2.5 6.9 -4.7
v 2.5 7.9 -4.7
v 4.2 2.1 -4.7
v 4.2 6.9 -4.7
v 4.3 2 -4.7
v 4.3 2.5 -4.7
v 4.3 7.3 -4.7
v 4.3 7.7 -4.7
v 4.3 7.9 -4.7
v 2.5 2.1 -4.8
v 2.5 6.9 -4.8
v 4.2 2.1 -4.8
v 4.2 6.9 -4.8
v 4.3 7.7 -4.8
v 4.3 7.9 -4.8
v 4.4 7.7 -4.8
v 4.4 7.9 -4.8
v 4.5 2.3 -4.8
v 4.5 2.4 -4.8
v 4.7 2.1 -4.8
v 4.7 2.3 -4.8
v 4.7 7.6 -4.8
v 4.7 7.7 -4.8
v 4.7 7.8 -4.8
v 4.8 2.1 -4.8
v 4.8 2.3 -4.8
v 4.8 2.4 -4.8
v 4.8 7.6 -4.8
v 4.8 7.7 -4.8
v 4.8 7.8 -4.8
v 4.4 2.4 -4.9
v 4.4 7.5 -4.9
v 4.5 7.5 -4.9
v 4.5 7.6 -4.9
v 4.7 2.4 -4.9
v 4.7 7.6 -4.9
v 4.4 2.1 -5.1
v 4.4 2.2 -5.1
v 4.7 2.1 -5.1
v 4.7 2.2 -5.1
v 4.4 2.4 -2.1
v 4.4 7.6 -2.1
v 4.7 2.4 -2.1
v 4.7 7.6 -2.1
v 4.5 2.3 -2.2
v 4.5 2.4 -2.2
v 4.7 2.1 -2.2
v 4.7 2.3 -2.2
v 4.7 7.6 -2.2
v 4.7 7.7 -2.2
v 4.7 7.8 -2.2
v 4.8 2.1 -2.2
v 4.8 2.3 -2.2
v 4.8 2.4 -2.2
v 4.8 7.6 -2.2
v 4.8 7.7 -2.2
v 4.8 7.8 -2.2
v 4.3 2.6 -2.4
v 4.3 4.8 -2.4
v 4.3 5.1 -2.4
v 4.3 7.2 -2.4
v 4.4 2.6 -2.4
v 4.4 4.8 -2.4
v 4.4 5.1 -2.4
v 4.4 7.2 -2.4
v 2.5 2 -2.5
v 2.5 7.9 -2.5
v 4.2 2.6 -2.5
v 4.2 7.2 -2.5
v 4.3 2 -2.5
v 4.3 2.5 -2.5
v 4.3 2.6 -2.5
v 4.3 7.2 -2.5
v 4.3 7.3 -2.5
v 4.3 7.7 -2.5
v 4.4 7.7 -2.5
v 4.4 7.9 -2.5
v 4.3 4.8 -2.7
v 4.3 5.1 -2.7
v 4.4 4.8 -2.7
v 4.4 5.1 -2.7
v 4.2 2.6 -4.6
v 4.2 7.2 -4.6
v 4.3 2.6 -4.6
v 4.3 7.2 -4.6
v 2.4 2 -4.9
v 2.4 8 -4.9
v 4.3 2 -4.9
v 4.3 2.3 -4.9
v 4.3 2.4 -4.9
v 4.3 7.6 -4.9
v 4.3 7.7 -4.9
v 4.3 8 -4.9
v 4.4 2.1 -4.9
v 4.4 2.2 -4.9
v 4.4 2.4 -4.9
v 4.4 7.6 -4.9
v 4.7 2.1 -4.9
v 4.7 2.2 -4.9
v 4.4 2.4 -5.2
v 4.4 7.6 -5.2
v 4.7 2.4 -5.2
v 4.7 7.6 -5.2
v 4.3 2 -5.3
v 4.3 2.3 -5.3
v 4.3 2.4 -5.3
v 4.3 7.6 -5.3
v 4.3 7.7 -5.3
v 4.3 8 -5.3
v 4.8 2 -5.3
v 4.8 2.3 -5.3
v 4.8 2.4 -5.3
v 4.8 7.6 -5.3
v 4.8 7.7 -5.3
v 4.8 8 -5.3
v 4.3 2 -1.7
v 4.8 2 -1.7
v 2.4 2 -2.2
v 4.3 2 -2.2
v 2.5 2 -2.5
v 4.3 2 -2.5
v 2.5 2 -4.7
v 4.3 2 -4.7
v 2.4 2 -4.9
v 4.3 2 -4.9
v 4.3 2 -5.3
v 4.8 2 -5.3
v 4.4 2.2 -4.9
v 4.7 2.2 -4.9
v 4.4 2.2 -5.1
v 4.7 2.2 -5.1
v 4.2 2.6 -2.5
v 4.3 2.6 -2.5
v 4.2 2.6 -4.6
v 4.3 2.6 -4.6
v 4.3 4.8 -2.4
v 4.4 4.8 -2.4
v 4.3 4.8 -2.7
v 4.4 4.8 -2.7
v 2.5 6.9 -4.7
v 4.2 6.9 -4.7
v 2.5 6.9 -4.8
v 4.2 6.9 -4.8
v 4.3 7.2 -2.4
v 4.4 7.2 -2.4
v 4.3 7.2 -4.6
v 4.4 7.2 -4.6
v 4.4 7.5 -2.2
v 4.5 7.5 -2.2
v 4.4 7.5 -4.9
v 4.5 7.5 -4.9
v 4.3 7.6 -1.7
v 4.8 7.6 -1.7
v 4.4 7.6 -1.8
v 4.7 7.6 -1.8
v 4.3 7.6 -2.1
v 4.4 7.6 -2.1
v 4.7 7.6 -2.1
v 4.4 7.6 -2.2
v 4.5 7.6 -2.2
v 4.7 7.6 -2.2
v 4.8 7.6 -2.2
v 4.5 7.6 -4.8
v 4.7 7.6 -4.8
v 4.8 7.6 -4.8
v 4.3 7.6 -4.9
v 4.4 7.6 -4.9
v 4.5 7.6 -4.9
v 4.7 7.6 -4.9
v 4.4 7.6 -5.2
v 4.7 7.6 -5.2
v 4.3 7.6 -5.3
v 4.8 7.6 -5.3
v 4.7 7.8 -2.2
v 4.8 7.8 -2.2
v 4.7 7.8 -4.8
v 4.8 7.8 -4.8
v 2.5 7.9 -2.5
v 4.4 7.9 -2.5
v 2.5 7.9 -4.7
v 4.3 7.9 -4.7
v 4.3 7.9 -4.8
v 4.4 7.9 -4.8
v 4.7 2.1 -2.2
v 4.8 2.1 -2.2
v 2.5 2.1 -4.7
v 4.2 2.1 -4.7
v 2.5 2.1 -4.8
v 4.2 2.1 -4.8
v 4.7 2.1 -4.8
v 4.8 2.1 -4.8
v 4.4 2.1 -4.9
v 4.7 2.1 -4.9
v 4.4 2.1 -5.1
v 4.7 2.1 -5.1
v 4.5 2.3 -2.2
v 4.7 2.3 -2.2
v 4.5 2.3 -4.8
v 4.7 2.3 -4.8
v 4.3 2.4 -1.7
v 4.8 2.4 -1.7
v 4.4 2.4 -1.8
v 4.7 2.4 -1.8
v 4.3 2.4 -2.1
v 4.4 2.4 -2.1
v 4.7 2.4 -2.1
v 4.4 2.4 -2.2
v 4.5 2.4 -2.2
v 4.8 2.4 -2.2
v 4.4 2.4 -4.8
v 4.5 2.4 -4.8
v 4.8 2.4 -4.8
v 4.3 2.4 -4.9
v 4.4 2.4 -4.9
v 4.7 2.4 -4.9
v 4.4 2.4 -5.2
v 4.7 2.4 -5.2
v 4.3 2.4 -5.3
v 4.8 2.4 -5.3
v 4.3 2.6 -2.4
v 4.4 2.6 -2.4
v 4.3 2.6 -4.6
v 4.4 2.6 -4.6
v 4.3 5.1 -2.4
v 4.4 5.1 -2.4
v 4.3 5.1 -2.7
v 4.4 5.1 -2.7
v 4.2 7.2 -2.5
v 4.3 7.2 -2.5
v 4.2 7.2 -4.6
v 4.3 7.2 -4.6
v 4.3 7.7 -2.5
v 4.4 7.7 -2.5
v 4.3 7.7 -4.7
v 4.3 7.7 -4.8
v 4.4 7.7 -4.8
v 4.3 8 -1.7
v 4.8 8 -1.7
v 2.4 8 -2.2
v 4.3 8 -2.2
v 2.4 8 -4.9
v 4.3 8 -4.9
v 4.3 8 -5.3
v 4.8 8 -5.3

# faces
f 3/2/1 2/2/1 1/2/1
f 4/2/1 2/2/1 3/2/1
f 9/2/1 8/2/1 7/2/1
f 10/2/1 8/2/1 9/2/1
f 11/2/1 9/2/1 7/2/1
f 11/1/1 10/1/1 9/1/1
f 12/2/1 8/2/1 10/2/1
f 12/1/1 10/1/1 11/1/1
f 13/2/1 11/2/1 7/2/1
f 13/2/1 12/2/1 11/2/1
f 14/2/1 8/2/1 12/2/1
f 14/2/1 12/2/1 13/2/1
f 15/2/1 13/2/1 7/2/1
f 15/1/1 14/1/1 13/1/1
f 16/2/1 8/2/1 14/2/1
f 16/1/1 14/1/1 15/1/1
f 17/2/1 6/2/1 5/2/1
f 18/2/1 6/2/1 17/2/1
f 19/2/1 15/2/1 7/2/1
f 19/2/1 16/2/1 15/2/1
f 20/2/1 8/2/1 16/2/1
f 20/2/1 16/2/1 19/2/1
f 27/2/1 22/2/1 21/2/1
f 28/2/1 22/2/1 27/2/1
f 29/2/1 26/2/1 25/2/1
f 30/2/1 26/2/1 29/2/1
f 31/1/1 28/1/1 27/1/1
f 32/1/1 28/1/1 31/1/1
f 33/1/1 28/1/1 32/1/1
f 34/1/1 30/1/1 29/1/1
f 35/1/1 30/1/1 34/1/1
f 36/2/1 24/2/1 23/2/1
f 37/2/1 24/2/1 36/2/1
f 38/1/1 37/1/1 36/1/1
f 39/1/1 37/1/1 38/1/1
f 41/1/1 37/1/1 39/1/1
f 42/1/1 41/1/1 40/1/1
f 43/1/1 37/1/1 41/1/1
f 43/1/1 41/1/1 42/1/1
f 45/2/1 33/2/1 32/2/1
f 46/2/1 33/2/1 45/2/1
f 49/1/1 46/1/1 45/1/1
f 49/1/1 45/1/1 44/1/1
f 50/1/1 46/1/1 49/1/1
f 51/2/1 43/2/1 42/2/1
f 52/2/1 43/2/1 51/2/1
f 53/1/1 48/1/1 47/1/1
f 54/1/1 48/1/1 53/1/1
f 55/2/1 50/2/1 49/2/1
f 56/2/1 50/2/1 55/2/1
f 57/2/1 54/2/1 53/2/1
f 58/2/1 54/2/1 57/2/1
f 63/2/1 60/2/1 59/2/1
f 64/2/1 60/2/1 63/2/1
f 65/2/1 62/2/1 61/2/1
f 66/2/1 62/2/1 65/2/1
f 69/2/1 68/2/1 67/2/1
f 70/2/1 68/2/1 69/2/1
f 73/2/1 72/2/1 71/2/1
f 74/2/1 72/2/1 73/2/1
f 75/2/2 76/2/2 77/2/2
f 75/2/2 77/2/2 79/2/2
f 77/2/2 78/2/2 79/2/2
f 79/2/2 78/2/2 80/2/2
f 75/2/2 79/2/2 81/2/2
f 81/2/2 79/2/2 82/2/2
f 83/2/2 84/2/2 85/2/2
f 85/2/2 84/2/2 86/2/2
f 83/2/2 85/2/2 87/2/2
f 85/1/2 86/1/2 88/1/2
f 87/2/2 85/2/2 88/2/2
f 86/2/2 84/2/2 89/2/2
f 88/1/2 86/1/2 89/1/2
f 88/2/2 89/2/2 91/2/2
f 89/2/2 84/2/2 92/2/2
f 91/2/2 89/2/2 92/2/2
f 90/2/2 91/2/2 93/2/2
f 91/1/2 92/1/2 93/1/2
f 92/2/2 84/2/2 94/2/2
f 93/1/2 92/1/2 94/1/2
f 90/2/2 93/2/2 95/2/2
f 93/2/2 94/2/2 95/2/2
f 94/2/2 84/2/2 96/2/2
f 95/2/2 94/2/2 96/2/2
f 97/2/2 98/2/2 99/2/2
f 99/2/2 98/2/2 100/2/2
f 101/2/2 102/2/2 103/2/2
f 103/2/2 102/2/2 104/2/2
f 105/2/2 106/2/2 109/2/2
f 107/2/2 108/2/2 109/2/2
f 106/2/2 107/2/2 109/2/2
f 109/2/2 108/2/2 110/2/2
f 109/1/2 110/1/2 111/1/2
f 111/1/2 110/1/2 112/1/2
f 109/1/2 111/1/2 113/1/2
f 109/1/2 113/1/2 115/1/2
f 113/3/2 114/3/2 115/3/2
f 115/3/2 114/3/2 116/3/2
f 109/1/2 115/1/2 117/1/2
f 112/1/2 110/1/2 118/1/2
f 105/2/2 109/2/2 119/2/2
f 117/1/2 118/1/2 119/1/2
f 109/1/2 117/1/2 119/1/2
f 118/1/2 110/1/2 120/1/2
f 119/1/2 118/1/2 120/1/2
f 110/2/2 108/2/2 120/2/2
f 105/2/2 119/2/2 121/2/2
f 119/2/2 120/2/2 121/2/2
f 120/2/2 108/2/2 122/2/2
f 121/2/2 120/2/2 122/2/2
f 105/2/2 121/2/2 123/2/2
f 123/2/2 121/2/2 124/2/2
f 125/2/2 126/2/2 127/2/2
f 127/2/2 126/2/2 128/2/2
f 129/2/2 130/2/2 131/2/2
f 131/2/2 130/2/2 132/2/2
f 132/2/2 130/2/2 133/2/2
f 134/2/2 135/2/2 136/2/2
f 136/2/2 135/2/2 137/2/2
f 138/2/2 139/2/2 142/2/2
f 142/2/2 139/2/2 143/2/2
f 140/2/2 141/2/2 146/2/2
f 146/2/2 141/2/2 147/2/2
f 144/2/2 145/2/2 148/2/2
f 148/2/2 145/2/2 149/2/2
f 148/2/2 149/2/2 150/2/2
f 150/2/2 149/2/2 151/2/2
f 152/2/2 153/2/2 154/2/2
f 154/2/2 153/2/2 155/2/2
f 152/2/2 154/2/2 156/2/2
f 156/2/2 154/2/2 157/2/2
f 155/2/2 153/2/2 158/2/2
f 158/2/2 153/2/2 159/2/2
f 156/1/2 157/1/2 160/1/2
f 160/1/2 157/1/2 161/1/2
f 158/1/2 159/1/2 162/1/2
f 162/1/2 159/1/2 163/1/2
f 164/1/2 165/1/2 168/1/2
f 168/1/2 165/1/2 169/1/2
f 166/1/2 167/1/2 170/1/2
f 170/1/2 167/1/2 171/1/2
f 168/2/2 169/2/2 172/2/2
f 170/2/2 171/2/2 173/2/2
f 168/2/2 172/2/2 174/2/2
f 172/2/2 173/2/2 174/2/2
f 173/2/2 171/2/2 175/2/2
f 174/2/2 173/2/2 175/2/2
f 182/2/3 177/2/3 176/2/3
f 183/1/3 178/1/3 177/1/3
f 183/2/3 177/2/3 182/2/3
f 184/1/3 178/1/3 183/1/3
f 185/1/3 180/1/3 179/1/3
f 186/2/3 181/2/3 180/2/3
f 186/1/3 180/1/3 185/1/3
f 187/2/3 181/2/3 186/2/3
f 190/2/3 189/2/3 188/2/3
f 191/2/3 189/2/3 190/2/3
f 194/2/3 193/2/3 192/2/3
f 195/2/3 193/2/3 194/2/3
f 198/2/3 197/2/3 196/2/3
f 199/2/3 197/2/3 198/2/3
f 200/2/3 197/2/3 199/2/3
f 201/2/3 197/2/3 200/2/3
f 202/2/3 197/2/3 201/2/3
f 203/2/3 197/2/3 202/2/3
f 206/2/3 205/2/3 204/2/3
f 207/2/3 205/2/3 206/2/3
f 210/1/3 209/1/3 208/1/3
f 211/1/3 209/1/3 210/1/3
f 216/2/3 213/2/3 212/2/3
f 217/2/3 215/2/3 214/2/3
f 218/2/3 216/2/3 212/2/3
f 218/2/3 217/2/3 216/2/3
f 219/2/3 217/2/3 218/2/3
f 220/2/3 215/2/3 217/2/3
f 220/2/3 217/2/3 219/2/3
f 221/2/3 215/2/3 220/2/3
f 222/2/3 215/2/3 221/2/3
f 225/2/3 224/2/3 223/2/3
f 226/2/3 224/2/3 225/2/3
f 229/2/3 228/2/3 227/2/3
f 230/2/3 228/2/3 229/2/3
f 234/1/3 232/1/3 231/1/3
f 238/2/3 234/2/3 233/2/3
f 239/1/3 232/1/3 234/1/3
f 239/2/3 234/2/3 238/2/3
f 240/1/3 232/1/3 239/1/3
f 241/1/3 236/1/3 235/1/3
f 242/2/3 237/2/3 236/2/3
f 242/1/3 236/1/3 241/1/3
f 243/2/3 237/2/3 242/2/3
f 246/2/3 245/2/3 244/2/3
f 248/2/3 246/2/3 244/2/3
f 248/2/3 247/2/3 246/2/3
f 249/2/3 247/2/3 248/2/3
f 252/2/3 251/2/3 250/2/3
f 253/2/3 251/2/3 252/2/3
f 254/2/4 255/2/4 256/2/4
f 256/2/4 255/2/4 257/2/4
f 258/1/4 259/1/4 261/1/4
f 260/2/4 261/2/4 265/2/4
f 261/1/4 259/1/4 266/1/4
f 265/2/4 261/2/4 266/2/4
f 266/1/4 259/1/4 267/1/4
f 262/1/4 263/1/4 268/1/4
f 263/2/4 264/2/4 269/2/4
f 268/1/4 263/1/4 269/1/4
f 269/2/4 264/2/4 270/2/4
f 271/1/4 272/1/4 275/1/4
f 275/1/4 272/1/4 276/1/4
f 273/1/4 274/1/4 277/1/4
f 277/1/4 274/1/4 278/1/4
f 279/2/4 280/2/4 281/2/4
f 281/2/4 280/2/4 282/2/4
f 279/2/4 281/2/4 283/2/4
f 283/2/4 281/2/4 284/2/4
f 284/2/4 281/2/4 285/2/4
f 282/2/4 280/2/4 286/2/4
f 286/2/4 280/2/4 287/2/4
f 287/2/4 280/2/4 288/2/4
f 288/2/4 280/2/4 289/2/4
f 289/2/4 280/2/4 290/2/4
f 291/3/4 292/3/4 293/3/4
f 293/3/4 292/3/4 294/3/4
f 295/2/4 296/2/4 297/2/4
f 297/2/4 296/2/4 298/2/4
f 299/2/4 300/2/4 301/2/4
f 301/2/4 300/2/4 302/2/4
f 302/2/4 300/2/4 303/2/4
f 303/2/4 300/2/4 304/2/4
f 304/2/4 300/2/4 305/2/4
f 305/2/4 300/2/4 306/2/4
f 303/2/4 304/2/4 309/2/4
f 309/2/4 304/2/4 310/2/4
f 307/2/4 308/2/4 311/2/4
f 311/2/4 308/2/4 312/2/4
f 313/2/4 314/2/4 315/2/4
f 315/2/4 314/2/4 316/2/4
f 317/2/4 318/2/4 323/2/4
f 318/1/4 319/1/4 324/1/4
f 323/2/4 318/2/4 324/2/4
f 324/1/4 319/1/4 325/1/4
f 320/1/4 321/1/4 326/1/4
f 321/2/4 322/2/4 327/2/4
f 326/1/4 321/1/4 327/1/4
f 327/2/4 322/2/4 328/2/4
f 332/2/5 330/2/5 329/2/5
f 333/2/5 332/2/5 331/2/5
f 334/2/5 330/2/5 332/2/5
f 334/2/5 332/2/5 333/2/5
f 335/2/5 333/2/5 331/2/5
f 336/2/5 330/2/5 334/2/5
f 337/2/5 335/2/5 331/2/5
f 337/2/5 336/2/5 335/2/5
f 338/2/5 330/2/5 336/2/5
f 338/2/5 336/2/5 337/2/5
f 339/2/5 330/2/5 338/2/5
f 340/2/5 330/2/5 339/2/5
f 343/2/5 342/2/5 341/2/5
f 344/2/5 342/2/5 343/2/5
f 347/2/5 346/2/5 345/2/5
f 348/2/5 346/2/5 347/2/5
f 351/3/5 350/3/5 349/3/5
f 352/3/5 350/3/5 351/3/5
f 355/2/5 354/2/5 353/2/5
f 356/2/5 354/2/5 355/2/5
f 359/1/5 358/1/5 357/1/5
f 360/1/5 358/1/5 359/1/5
f 363/2/5 362/2/5 361/2/5
f 364/2/5 362/2/5 363/2/5
f 367/1/5 366/1/5 365/1/5
f 368/1/5 366/1/5 367/1/5
f 369/1/5 367/1/5 365/1/5
f 370/1/5 367/1/5 369/1/5
f 371/1/5 366/1/5 368/1/5
f 372/1/5 371/1/5 370/1/5
f 373/1/5 371/1/5 372/1/5
f 374/1/5 366/1/5 371/1/5
f 374/1/5 371/1/5 373/1/5
f 375/1/5 366/1/5 374/1/5
f 376/2/5 374/2/5 373/2/5
f 377/2/5 374/2/5 376/2/5
f 381/1/5 377/1/5 376/1/5
f 381/1/5 378/1/5 377/1/5
f 382/1/5 378/1/5 381/1/5
f 383/1/5 380/1/5 379/1/5
f 384/1/5 378/1/5 382/1/5
f 385/1/5 383/1/5 379/1/5
f 385/1/5 384/1/5 383/1/5
f 386/1/5 378/1/5 384/1/5
f 386/1/5 384/1/5 385/1/5
f 389/2/5 388/2/5 387/2/5
f 390/2/5 388/2/5 389/2/5
f 393/2/5 392/2/5 391/2/5
f 394/2/5 392/2/5 393/2/5
f 395/2/5 392/2/5 394/2/5
f 396/2/5 392/2/5 395/2/5
f 399/2/6 400/2/6 401/2/6
f 401/2/6 400/2/6 402/2/6
f 397/2/6 398/2/6 403/2/6
f 403/2/6 398/2/6 404/2/6
f 405/2/6 406/2/6 407/2/6
f 407/2/6 406/2/6 408/2/6
f 409/2/6 410/2/6 411/2/6
f 411/2/6 410/2/6 412/2/6
f 413/1/6 414/1/6 415/1/6
f 415/1/6 414/1/6 416/1/6
f 413/1/6 415/1/6 417/1/6
f 417/1/6 415/1/6 418/1/6
f 416/1/6 414/1/6 419/1/6
f 418/1/6 419/1/6 420/1/6
f 420/1/6 419/1/6 421/1/6
f 419/1/6 414/1/6 422/1/6
f 421/1/6 419/1/6 422/1/6
f 420/2/6 421/2/6 423/2/6
f 423/2/6 421/2/6 424/2/6
f 423/1/6 424/1/6 427/1/6
f 424/1/6 425/1/6 427/1/6
f 427/1/6 425/1/6 428/1/6
f 426/1/6 427/1/6 429/1/6
f 428/1/6 425/1/6 430/1/6
f 426/1/6 429/1/6 431/1/6
f 429/1/6 430/1/6 431/1/6
f 430/1/6 425/1/6 432/1/6
f 431/1/6 430/1/6 432/1/6
f 433/1/6 434/1/6 435/1/6
f 435/1/6 434/1/6 436/1/6
f 437/3/6 438/3/6 439/3/6
f 439/3/6 438/3/6 440/3/6
f 441/2/6 442/2/6 443/2/6
f 443/2/6 442/2/6 444/2/6
f 445/2/6 446/2/6 447/2/6
f 447/2/6 446/2/6 448/2/6
f 448/2/6 446/2/6 449/2/6
f 450/2/6 451/2/6 453/2/6
f 452/2/6 453/2/6 454/2/6
f 453/2/6 451/2/6 455/2/6
f 454/2/6 453/2/6 455/2/6
f 455/2/6 451/2/6 456/2/6
f 456/2/6 451/2/6 457/2/6
